<svg t="1711609174945" class="icon" viewBox="0 0 1024 1024" version="1.1" xmlns="http://www.w3.org/2000/svg" p-id="65227" width="256" height="256"><path d="M709.363128 460.513966c0 8.581006 8.581006 17.162011 17.162012 17.162012s17.162011-8.581006 17.162011-17.162012-8.581006-17.162011-17.162011-17.162011-17.162011 5.72067-17.162012 17.162011z" fill="#FFB0DB" p-id="65228"></path><path d="M726.52514 480.536313c-11.441341 0-22.882682-11.441341-22.882682-22.882682s11.441341-22.882682 22.882682-22.882681 22.882682 11.441341 22.882681 22.882681c0 14.301676-11.441341 22.882682-22.882681 22.882682z m0-31.463687c-5.72067 0-8.581006 2.860335-8.581006 8.581005 0 5.72067 2.860335 8.581006 8.581006 8.581006 5.72067 0 8.581006-2.860335 8.581005-8.581006 0-2.860335-5.72067-8.581006-8.581005-8.581005z" p-id="65229"></path><path d="M752.268156 500.558659h-51.486033c-5.72067 0-11.441341-5.72067-11.441341-11.441341s5.72067-11.441341 11.441341-11.44134h51.486033c5.72067 0 11.441341 5.72067 11.441341 11.44134s-5.72067 11.441341-11.441341 11.441341z" fill="#FFB0DB" p-id="65230"></path><path d="M752.268156 506.27933h-51.486033c-11.441341 0-20.022346-8.581006-20.022346-20.022347 0-11.441341 8.581006-20.022346 20.022346-20.022346h51.486033c11.441341 0 20.022346 8.581006 20.022347 20.022346-2.860335 11.441341-11.441341 20.022346-20.022347 20.022347z m-54.346368-25.743017c-2.860335 0-5.72067 2.860335-5.720671 5.72067s2.860335 5.72067 5.720671 5.720671h51.486033c2.860335 0 5.72067-2.860335 5.720671-5.720671s-2.860335-5.72067-5.720671-5.72067h-51.486033z" p-id="65231"></path><path d="M743.687151 600.670391h-37.184358c-20.022346 0-37.184358-17.162011-37.184357-37.184357s17.162011-37.184358 37.184357-37.184358H743.687151c20.022346 0 37.184358 17.162011 37.184357 37.184358 0 20.022346-17.162011 37.184358-37.184357 37.184357z" fill="#73E9DA" p-id="65232"></path><path d="M743.687151 606.391061h-37.184358c-22.882682 0-42.905028-20.022346-42.905028-42.905027s20.022346-42.905028 42.905028-42.905028H743.687151c22.882682 0 42.905028 20.022346 42.905028 42.905028s-20.022346 42.905028-42.905028 42.905027z m-37.184358-74.368715c-17.162011 0-28.603352 14.301676-28.603352 28.603352 0 17.162011 14.301676 28.603352 28.603352 28.603352H743.687151c17.162011 0 28.603352-14.301676 28.603352-28.603352s-14.301676-28.603352-28.603352-28.603352h-37.184358z" p-id="65233"></path><path d="M792.312849 666.458101H657.877095c0-22.882682 17.162011-40.044693 40.044693-40.044693h54.346368c20.022346 0 40.044693 17.162011 40.044693 40.044693z" fill="#FFB0DB" p-id="65234"></path><path d="M792.312849 672.178771H657.877095c-2.860335 0-5.72067-2.860335-5.72067-5.72067 0-25.743017 20.022346-45.765363 45.765363-45.765364h54.346368c25.743017 0 45.765363 20.022346 45.765364 42.905028 0 5.72067-2.860335 8.581006-5.720671 8.581006z m-125.854748-14.301676h117.273743c-2.860335-14.301676-17.162011-25.743017-31.463688-25.743017h-54.346368c-14.301676 2.860335-28.603352 11.441341-31.463687 25.743017z" p-id="65235"></path><path d="M703.642458 500.558659h42.905028v25.743017h-42.905028v-25.743017z" fill="#FD7BB7" p-id="65236"></path><path d="M746.547486 532.022346h-42.905028c-2.860335 0-5.72067-2.860335-5.72067-5.72067v-25.743017c0-2.860335 2.860335-5.72067 5.72067-5.72067h42.905028c2.860335 0 5.72067 2.860335 5.72067 5.72067v25.743017c2.860335 2.860335 0 5.72067-5.72067 5.72067z m-37.184358-14.301676h31.463688v-11.44134h-31.463688v11.44134z" p-id="65237"></path><path d="M695.061453 600.670391h57.206703v28.603352h-57.206703v-28.603352z" fill="#FD7BB7" p-id="65238"></path><path d="M752.268156 634.994413h-57.206703c-2.860335 0-5.72067-2.860335-5.720671-5.72067v-28.603352c0-2.860335 2.860335-5.72067 5.720671-5.72067h57.206703c2.860335 0 5.72067 2.860335 5.720671 5.72067v28.603352c2.860335 2.860335 0 5.72067-5.720671 5.72067z m-48.625698-14.301676h42.905028v-14.301676h-42.905028v14.301676z" p-id="65239"></path><path d="M706.502793 563.486034c0 11.441341 8.581006 20.022346 20.022347 20.022346 11.441341 0 20.022346-8.581006 20.022346-20.022346 0-11.441341-8.581006-20.022346-20.022346-20.022347-11.441341 0-20.022346 8.581006-20.022347 20.022347z" fill="#FFFFFF" p-id="65240"></path><path d="M726.52514 589.22905c-14.301676 0-25.743017-11.441341-25.743017-25.743016s11.441341-25.743017 25.743017-25.743017 25.743017 11.441341 25.743016 25.743017-14.301676 25.743017-25.743016 25.743016z m0-37.184357c-5.72067 0-11.441341 5.72067-11.441341 11.441341s5.72067 11.441341 11.441341 11.44134 11.441341-5.72067 11.44134-11.44134-5.72067-11.441341-11.44134-11.441341zM726.52514 449.072626c-2.860335 0-5.72067-2.860335-5.720671-5.720671V429.050279c0-2.860335 2.860335-5.72067 5.720671-5.72067s5.72067 2.860335 5.72067 5.72067v14.301676c0 2.860335-2.860335 5.72067-5.72067 5.720671z" p-id="65241"></path><path d="M451.932961 348.960894c0 17.162011 14.301676 28.603352 28.603352 28.603352 17.162011 0 28.603352-14.301676 28.603352-28.603352 0-17.162011-14.301676-28.603352-28.603352-28.603352s-28.603352 11.441341-28.603352 28.603352z" fill="#FFB0DB" p-id="65242"></path><path d="M480.536313 386.145251c-20.022346 0-37.184358-17.162011-37.184358-37.184357s17.162011-37.184358 37.184358-37.184358c20.022346 0 37.184358 17.162011 37.184357 37.184358 0 20.022346-17.162011 37.184358-37.184357 37.184357z m0-60.067039c-11.441341 0-22.882682 8.581006-22.882682 22.882682 0 11.441341 8.581006 22.882682 22.882682 22.882681 11.441341 0 22.882682-8.581006 22.882681-22.882681 0-11.441341-8.581006-22.882682-22.882681-22.882682z" p-id="65243"></path><path d="M529.162011 423.329609h-94.391061c-11.441341 0-22.882682-8.581006-22.882682-22.882682s8.581006-22.882682 22.882682-22.882681h94.391061c11.441341 0 22.882682 8.581006 22.882682 22.882681 0 11.441341-11.441341 22.882682-22.882682 22.882682z" fill="#FFB0DB" p-id="65244"></path><path d="M529.162011 431.910615h-94.391061c-17.162011 0-28.603352-14.301676-28.603352-28.603352s14.301676-28.603352 28.603352-28.603352h94.391061c17.162011 0 28.603352 14.301676 28.603352 28.603352s-11.441341 28.603352-28.603352 28.603352z m-94.391061-45.765364c-8.581006 0-14.301676 5.72067-14.301676 14.301676s5.72067 14.301676 14.301676 14.301676h94.391061c8.581006 0 14.301676-5.72067 14.301676-14.301676s-5.72067-14.301676-14.301676-14.301676h-94.391061z" p-id="65245"></path><path d="M514.860335 606.391061h-65.787709c-37.184358 0-68.648045-31.463687-68.648045-68.648044 0-37.184358 31.463687-68.648045 68.648045-68.648045H514.860335c37.184358 0 68.648045 31.463687 68.648045 68.648045 0 40.044693-31.463687 68.648045-68.648045 68.648044z" fill="#73E9DA" p-id="65246"></path><path d="M514.860335 614.972067h-65.787709c-40.044693 0-74.368715-34.324022-74.368715-74.368715 0-40.044693 34.324022-74.368715 74.368715-74.368715H514.860335c40.044693 0 74.368715 34.324022 74.368715 74.368715 0 40.044693-34.324022 74.368715-74.368715 74.368715z m-65.787709-134.435754c-34.324022 0-60.067039 28.603352-60.067039 60.067039 0 34.324022 28.603352 60.067039 60.067039 60.067039H514.860335c34.324022 0 60.067039-28.603352 60.067039-60.067039s-28.603352-60.067039-60.067039-60.067039h-65.787709z" p-id="65247"></path><path d="M603.530726 729.385475h-243.128491c0-40.044693 31.463687-71.50838 71.50838-71.50838h100.111731c40.044693 0 71.50838 31.463687 71.50838 71.50838z" fill="#FFB0DB" p-id="65248"></path><path d="M603.530726 737.96648h-243.128491c-2.860335 0-5.72067-2.860335-5.720671-5.72067 0-42.905028 34.324022-80.089385 80.089386-80.089385h100.111732c42.905028 0 77.22905 34.324022 80.089385 77.22905-5.72067 5.72067-8.581006 8.581006-11.441341 8.581005z m-237.407821-14.301676h228.826816c-2.860335-31.463687-31.463687-57.206704-65.78771-57.206703H429.050279c-31.463687 0-57.206704 22.882682-62.927374 57.206703z" p-id="65249"></path><path d="M440.49162 423.329609h80.089386v48.625698h-80.089386v-48.625698z" fill="#FD7BB7" p-id="65250"></path><path d="M523.441341 480.536313h-80.089386c-2.860335 0-5.72067-2.860335-5.72067-5.720671v-48.625698c0-2.860335 2.860335-5.72067 5.72067-5.72067h80.089386c2.860335 0 5.72067 2.860335 5.72067 5.72067v48.625698s-2.860335 5.72067-5.72067 5.720671z m-77.22905-14.301676H514.860335v-34.324022h-68.648044v34.324022z" p-id="65251"></path><path d="M429.050279 606.391061h105.832403V657.877095H429.050279v-51.486034z" fill="#FD7BB7" p-id="65252"></path><path d="M534.882682 666.458101H429.050279c-2.860335 0-5.72067-2.860335-5.72067-5.720671v-51.486033c0-2.860335 2.860335-5.72067 5.72067-5.720671h105.832403c2.860335 0 5.72067 2.860335 5.72067 5.720671V657.877095c0 5.72067-2.860335 8.581006-5.72067 8.581006z m-100.111732-14.301676h91.530726v-37.184358h-91.530726v37.184358z" p-id="65253"></path><path d="M446.212291 540.603352c0 20.022346 14.301676 34.324022 34.324022 34.324022s34.324022-14.301676 34.324022-34.324022-14.301676-34.324022-34.324022-34.324022c-17.162011 0-34.324022 14.301676-34.324022 34.324022z" fill="#FFFFFF" p-id="65254"></path><path d="M480.536313 580.648045c-22.882682 0-40.044693-17.162011-40.044693-40.044693 0-22.882682 17.162011-40.044693 40.044693-40.044693 22.882682 0 40.044693 17.162011 40.044693 40.044693s-17.162011 40.044693-40.044693 40.044693z m0-68.648045c-14.301676 0-28.603352 11.441341-28.603352 28.603352 0 14.301676 11.441341 28.603352 28.603352 28.603352 14.301676 0 28.603352-11.441341 28.603352-28.603352s-11.441341-28.603352-28.603352-28.603352zM480.536313 326.078212c-2.860335 0-5.72067-2.860335-5.720671-5.72067v-25.743017c0-2.860335 2.860335-5.72067 5.720671-5.72067s5.72067 2.860335 5.72067 5.72067v25.743017c2.860335 2.860335 0 5.72067-5.72067 5.72067z" p-id="65255"></path><path d="M283.173184 491.977654c0 8.581006 8.581006 17.162011 17.162012 17.162011s17.162011-8.581006 17.162011-17.162011-8.581006-17.162011-17.162011-17.162012-17.162011 8.581006-17.162012 17.162012z" fill="#FFB0DB" p-id="65256"></path><path d="M300.335196 514.860335c-11.441341 0-22.882682-11.441341-22.882682-22.882681s11.441341-22.882682 22.882682-22.882682 22.882682 11.441341 22.882681 22.882682-11.441341 22.882682-22.882681 22.882681z m0-34.324022c-5.72067 0-8.581006 2.860335-8.581006 8.581005 0 5.72067 2.860335 8.581006 8.581006 8.581006 5.72067 0 8.581006-2.860335 8.581005-8.581006 0-2.860335-2.860335-8.581006-8.581005-8.581005z" p-id="65257"></path><path d="M326.078212 532.022346H271.731844c-5.72067 0-11.441341-5.72067-11.441341-11.44134s5.72067-11.441341 11.441341-11.441341h54.346368c5.72067 0 11.441341 5.72067 11.441341 11.441341s-2.860335 11.441341-11.441341 11.44134z" fill="#FFB0DB" p-id="65258"></path><path d="M326.078212 540.603352H271.731844c-11.441341 0-20.022346-8.581006-20.022347-20.022346s8.581006-20.022346 20.022347-20.022347h54.346368c11.441341 0 20.022346 8.581006 20.022347 20.022347s-8.581006 20.022346-20.022347 20.022346zM271.731844 514.860335c-2.860335 0-5.72067 2.860335-5.720671 5.720671s2.860335 5.72067 5.720671 5.72067h54.346368c2.860335 0 5.72067-2.860335 5.720671-5.72067s-2.860335-5.72067-5.720671-5.720671H271.731844z" p-id="65259"></path><path d="M317.497207 634.994413H280.312849c-20.022346 0-37.184358-17.162011-37.184357-37.184357s17.162011-37.184358 37.184357-37.184358h37.184358c20.022346 0 37.184358 17.162011 37.184357 37.184358s-14.301676 37.184358-37.184357 37.184357z" fill="#73E9DA" p-id="65260"></path><path d="M317.497207 640.715084H280.312849c-25.743017 0-45.765363-20.022346-45.765363-45.765363 0-25.743017 20.022346-45.765363 45.765363-45.765363h37.184358c25.743017 0 45.765363 20.022346 45.765363 45.765363s-20.022346 45.765363-45.765363 45.765363z m-37.184358-74.368715c-17.162011 0-31.463687 14.301676-31.463687 31.463687 0 17.162011 14.301676 31.463687 31.463687 31.463687h37.184358c17.162011 0 31.463687-14.301676 31.463687-31.463687 0-17.162011-14.301676-31.463687-31.463687-31.463687H280.312849z" p-id="65261"></path><path d="M366.122905 703.642458H231.687151c0-22.882682 17.162011-40.044693 40.044693-40.044693h54.346368c22.882682 0 40.044693 17.162011 40.044693 40.044693z" fill="#FFB0DB" p-id="65262"></path><path d="M366.122905 709.363128H231.687151c-2.860335 0-5.72067-2.860335-5.720671-5.72067 0-25.743017 20.022346-45.765363 45.765364-45.765363h54.346368c25.743017 0 45.765363 20.022346 45.765363 45.765363 2.860335 2.860335 0 5.72067-5.72067 5.72067z m-125.854749-14.301675h120.134079c-2.860335-14.301676-17.162011-25.743017-31.463688-25.743017h-57.206703c-14.301676 0-28.603352 11.441341-31.463688 25.743017z" p-id="65263"></path><path d="M277.452514 532.022346h45.765363v25.743017H277.452514v-25.743017z" fill="#FD7BB7" p-id="65264"></path><path d="M323.217877 566.346369H277.452514c-2.860335 0-5.72067-2.860335-5.72067-5.720671v-25.743016c0-2.860335 2.860335-5.72067 5.72067-5.720671h45.765363c2.860335 0 5.72067 2.860335 5.72067 5.720671v25.743016c0 2.860335-2.860335 5.72067-5.72067 5.720671z m-40.044693-14.301676H314.636872v-11.441341H283.173184v11.441341z" p-id="65265"></path><path d="M268.871508 634.994413h57.206704v28.603352h-57.206704v-28.603352z" fill="#FD7BB7" p-id="65266"></path><path d="M328.938547 669.318436h-57.206703c-2.860335 0-5.72067-2.860335-5.720671-5.720671v-28.603352c0-2.860335 2.860335-5.72067 5.720671-5.72067h57.206703c2.860335 0 5.72067 2.860335 5.720671 5.72067v28.603352c0 2.860335-2.860335 5.72067-5.720671 5.720671z m-51.486033-14.301676h42.905028v-14.301676H277.452514v14.301676z" p-id="65267"></path><path d="M280.312849 597.810056c0 11.441341 8.581006 20.022346 20.022347 20.022346 11.441341 0 20.022346-8.581006 20.022346-20.022346 0-11.441341-8.581006-20.022346-20.022346-20.022347-11.441341 0-20.022346 8.581006-20.022347 20.022347z" fill="#FFFFFF" p-id="65268"></path><path d="M300.335196 623.553073c-14.301676 0-25.743017-11.441341-25.743017-25.743017s11.441341-25.743017 25.743017-25.743017 25.743017 11.441341 25.743016 25.743017-11.441341 25.743017-25.743016 25.743017z m0-37.184358c-5.72067 0-11.441341 5.72067-11.441341 11.441341s5.72067 11.441341 11.441341 11.441341 11.441341-5.72067 11.44134-11.441341-5.72067-11.441341-11.44134-11.441341zM300.335196 480.536313c-2.860335 0-5.72067-2.860335-5.720671-5.720671v-14.301676c0-2.860335 2.860335-5.72067 5.720671-5.72067s5.72067 2.860335 5.72067 5.72067v14.301676c0 5.72067-2.860335 5.72067-5.72067 5.720671z" p-id="65269"></path><path d="M666.458101 792.312849H194.502793c-2.860335 0-5.72067-2.860335-5.72067-5.72067s2.860335-5.72067 5.72067-5.720671h471.955308c2.860335 0 5.72067 2.860335 5.72067 5.720671s-2.860335 5.72067-5.72067 5.72067zM800.893855 792.312849h-82.949721c-2.860335 0-5.72067-2.860335-5.72067-5.72067s2.860335-5.72067 5.72067-5.720671H800.893855c2.860335 0 5.72067 2.860335 5.72067 5.720671s0 5.72067-5.72067 5.72067zM449.072626 832.357542h-37.184358c-2.860335 0-5.72067-2.860335-5.72067-5.72067s2.860335-5.72067 5.72067-5.720671h37.184358c2.860335 0 5.72067 2.860335 5.72067 5.720671s-2.860335 5.72067-5.72067 5.72067zM732.24581 832.357542h-251.709497c-2.860335 0-5.72067-2.860335-5.720671-5.72067s2.860335-5.72067 5.720671-5.720671h251.709497c2.860335 0 5.72067 2.860335 5.72067 5.720671s-2.860335 5.72067-5.72067 5.72067z" p-id="65270"></path></svg>