<svg t="1711609903397" class="icon" viewBox="0 0 1151 1024" version="1.1" xmlns="http://www.w3.org/2000/svg" p-id="87025" width="256" height="256"><path d="M422.182731 300.322952l24.145239-49.021009h224.360542l24.208216 49.021009h-12.507159l-18.124674-38.755818H452.776777l-17.910553 38.755818h-12.683493z m-37.181403 100.825584v-45.02829l-56.981254-55.784699h461.102288l-57.006446 55.784699v45.02829h-10.353358v-49.298105l42.11877-41.237098H353.210726l42.068388 41.237098v49.298105h-10.277786z m10.265191-49.298105h121.645658l1.700369 10.277785h-123.358622v-10.277785z m-71.062829 49.298105h482.463961l-40.859238 35.103174a32.621894 32.621894 0 0 1-21.147552 7.821697H372.154096s-13.817073-0.680148-21.021599-7.884674L310.348831 401.161132l13.854859-0.012596z m454.741648 10.277786h-440.836408l20.089545 17.243001 0.125953 0.201526c3.929742 4.0431 12.507159 4.874391 14.068979 4.937367h372.254859c9.056039 0 14.144551-5.075916 14.144551-5.075916l0.277097-0.277097 19.875424-17.028881zM367.544207 826.140025h16.902927v10.277786h-16.902927v-10.277786z m43.554637 0h71.465879v10.277786h-71.465879v-10.277786z m98.117589 0h9.068635l1.624797 10.277786h-10.693432v-10.277786z m-98.117589 81.693284h294.818794v10.340762H411.098844v-10.340762zM122.439164 956.917294h895.792177a3117.292792 3117.292792 0 0 1-63.089988 10.277786H185.529151c-21.386863-3.249594-42.345486-6.700713-63.089987-10.277786z m-6.411021-46.325609h268.431586v10.277786H174.256335c-19.925806-3.312571-39.247036-6.725904-58.228192-10.277786z m185.214268-1.083198v-89.326052h10.277786v90.40925h-9.018254c-0.40305-0.340074-0.806101-0.743124-1.221746-1.083198h-0.037786z m18.930775 1.083198V869.203444h10.277786v41.388241h-10.277786z m36.992472 0v-119.957884l10.353358 5.000344v114.95754h-10.353358z m-18.326199 0V869.203444h10.277786v41.388241h-10.277786z m154.355719-517.151488h6.020566v-14.610578h-6.020566v14.610578z m11.146864 7.708339h-16.361329l-5.138893-3.854169v-22.318918l5.138893-3.85417h16.361329l5.138893 3.85417v22.318918l-5.138893 3.854169z m20.013973-7.708339h6.070947v-14.610578h-6.070947v14.610578z m11.222435 7.708339h-16.361328l-5.138893-3.854169v-22.318918l5.138893-3.85417h16.361328l5.138893 3.85417v22.318918l-5.138893 3.854169z m20.013973-7.708339h6.007971v-14.610578h-6.007971v14.610578z m11.159459 7.708339h-16.298352l-5.138893-3.854169v-22.318918l5.138893-3.85417h16.298352l5.20187 3.85417v22.318918l-5.20187 3.854169z m20.089545-7.708339h6.020566v-14.610578h-6.020566v14.610578z m11.159459 7.708339h-16.361329l-5.138893-3.854169v-22.318918l5.138893-3.85417h16.361329l5.138893 3.85417v22.318918l-5.138893 3.854169z m20.013973-7.708339h6.070947v-14.610578h-6.070947v14.610578z m11.222435 7.708339h-16.361328l-5.138893-3.854169v-22.318918l5.138893-3.85417h16.361328l5.138893 3.85417v22.318918l-5.138893 3.854169z m-261.478967 42.395867l7.406052 17.507504h-1.624797v13.590356l-18.72925-35.833702 7.305289 3.451119 5.642706 1.284723z m-1.964871 101.367184l5.000345 6.070947h-13.325855l-5.000345-6.070947h13.325855z m372.859435 155.325559h-16.373924l-5.138893-5.201869v-51.729004l5.138893-5.138893h16.373924l5.138893 5.138893v51.729004l-5.138893 5.201869z m-11.235031-10.340762h6.070947v-41.463813h-6.070947v41.463813z m-21.550603 10.340762h-16.373924l-5.138893-5.201869v-51.729004l5.138893-5.138893h16.373924l5.138893 5.138893v51.729004l-5.138893 5.201869z m-11.235031-10.340762h6.058352v-41.463813h-6.058352v41.463813z m-21.563198 10.340762h-16.373923l-5.138893-5.201869v-51.729004l5.138893-5.138893h16.373923l5.138893 5.138893v51.729004l-5.138893 5.201869z m-11.23503-10.340762h6.070947v-41.463813h-6.070947v41.463813z m44.08364 146.534022h-71.390307v-10.277786h71.390307v10.277786z m-394.359655 22.520443h45.645461v10.277786h-45.645461v-10.277786z m150.665289-158.713703h-16.298352l-5.20187-5.201869v-51.729004l5.20187-5.138893h16.298352l5.138893 5.138893v51.729004l-5.138893 5.201869z m-11.172054-10.340762h6.020566v-41.463813h-6.020566v41.463813z m-21.626175 10.340762h-16.373924l-5.138893-5.201869v-51.729004l5.138893-5.138893h16.373924l5.138893 5.138893v51.729004l-5.138893 5.201869z m-11.159459-10.340762h6.020566v-41.463813h-6.020566v41.463813z m-21.63877 10.340762h-16.373923l-5.138893-5.201869v-51.729004l5.138893-5.138893h16.361328l5.138893 5.138893v51.729004l-5.126298 5.201869z m-11.222435-10.340762h6.070947v-41.463813h-6.070947v41.463813z m177.002115-40.519164c0.012595-1.045412-0.415646-2.040443-1.146174-2.770972-0.743124-0.730529-1.738155-1.146175-2.770972-1.146174-1.032817 0.025191-2.027847 0.440836-2.758376 1.146174a3.999016 3.999016 0 0 0 0 5.617516c0.743124 0.717934 1.72556 1.120984 2.758376 1.146174a3.992718 3.992718 0 0 0 2.770972-1.146174c0.75572-0.75572 1.15877-1.775941 1.146174-2.846544z m6.14652-10.013284c2.670209 2.657614 4.181648 6.272472 4.181648 10.038475s-1.511439 7.393456-4.181648 10.038475a14.176039 14.176039 0 0 1-10.038475 4.181648c-3.766002 0-7.393456-1.511439-10.038475-4.181648a14.176039 14.176039 0 0 1-4.181648-10.038475c0-3.766002 1.511439-7.393456 4.181648-10.038475 2.657614-2.670209 6.272472-4.181648 10.038475-4.181648 3.766002 0 7.380861 1.511439 10.038475 4.181648z m-47.308045-301.103862h80.824207l-4.471341 27.382238h-78.179188l-4.169053-27.382238h5.995375z m68.707503 10.340762h-62.737318l1.083198 6.7385h60.583518l1.070602-6.7385z m-171.208265 44.839361h6.020565v-14.610578h-6.020565v14.610578z m11.20984 7.708339h-16.373924l-5.138893-3.854169v-22.318918l5.138893-3.85417h16.373924l5.138893 3.85417v22.318918l-5.138893 3.854169z m20.88305-7.708339h6.070947v-14.610578h-6.070947v14.610578z m11.235031 7.708339h-16.361328l-5.138893-3.854169v-22.318918l5.138893-3.85417h16.361328l5.138893 3.85417v22.318918l-5.138893 3.854169z m198.187454-7.708339h6.070947v-14.610578h-6.070947v14.610578z m11.260221 7.708339h-16.361328l-5.138893-3.854169v-22.318918l5.138893-3.85417h16.361328l5.138893 3.85417v22.318918l-5.138893 3.854169z m20.958623-7.708339h5.982779v-14.610578h-6.020565l0.037786 14.610578z m11.159458 7.708339h-16.298351l-5.138893-3.854169v-22.318918l5.138893-3.85417h16.298351l5.20187 3.85417v22.318918l-5.20187 3.854169z m-109.151094 288.609299l-14.257909 35.569201-12.116704-0.125954 17.368955-41.388241 9.005658 5.944994z m19.825043 13.250283l-21.550603 22.318918-10.680836-0.201526 23.57845-27.986814 8.652989 5.869422z m-121.116655-195.15198h6.020566v-14.635769h-6.020566v14.635769z m11.146864 7.695744h-16.361329l-5.138893-3.85417v-22.318917l5.138893-3.778598h16.361329l5.138893 3.778598v22.318917l-5.138893 3.85417z m20.013973-7.695744h6.070947v-14.635769h-6.070947v14.635769z m11.222435 7.695744h-16.361328l-5.138893-3.85417v-22.318917l5.138893-3.778598h16.361328l5.138893 3.778598v22.318917l-5.138893 3.85417z m20.013973-7.695744h6.007971v-14.635769h-6.007971v14.635769z m11.159459 7.695744h-16.298352l-5.138893-3.85417v-22.318917l5.138893-3.778598h16.298352l5.20187 3.778598v22.318917l-5.20187 3.85417z m20.089545-7.695744h6.020566v-14.635769h-6.020566v14.635769z m11.159459 7.695744h-16.361329l-5.138893-3.85417v-22.318917l5.138893-3.778598h16.361329l5.138893 3.778598v22.318917l-5.138893 3.85417z m20.013973-7.695744h6.070947v-14.635769h-6.070947v14.635769z m11.222435 7.695744h-16.361328l-5.138893-3.85417v-22.318917l5.138893-3.778598h16.361328l5.138893 3.778598v22.318917l-5.138893 3.85417z m-210.493087-7.695744h6.020565v-14.635769h-6.020565v14.635769z m11.20984 7.695744h-16.373924l-5.138893-3.85417v-22.318917l5.138893-3.778598h16.373924l5.138893 3.778598v22.318917l-5.138893 3.85417z m20.88305-7.695744h6.070947v-14.635769h-6.070947v14.635769z m11.235031 7.695744h-16.361328l-5.138893-3.85417v-22.318917l5.138893-3.778598h16.361328l5.138893 3.778598v22.318917l-5.138893 3.85417z m198.187454-7.695744h6.070947v-14.635769h-6.070947v14.635769z m11.260221 7.695744h-16.361328l-5.138893-3.85417v-22.318917l5.138893-3.778598h16.361328l5.138893 3.778598v22.318917l-5.138893 3.85417z m20.958623-7.695744h5.982779v-14.635769h-6.020565l0.037786 14.635769z m11.159458 7.695744h-16.298351l-5.138893-3.85417v-22.318917l5.138893-3.778598h16.298351l5.20187 3.778598v22.318917l-5.20187 3.85417z m-182.380319-62.623961h80.824206l-4.47134 27.394834h-78.204379l-4.169053-27.357048 6.020566-0.037786z m68.694907 10.340763h-62.749914l1.083198 6.738499h60.583518l1.083198-6.738499z m-68.694907 139.833309h80.824206l-4.47134 27.394834h-78.204379l-4.169053-27.357048 6.020566-0.037786z m68.694907 10.277786h-62.749914l1.083198 6.738499h60.583518l1.083198-6.738499zM341.371119 427.787651h-57.925904l53.290824 46.854612h-7.053382v7.506814l-73.569299-64.714784h73.292202l11.965559 10.353358z m32.193653 87.764231v-54.499975h142.893973l1.624797 10.277785H383.842558v44.234785l-10.277786-0.012595z m-16.638425 0H765.292005v29.347109H351.787454v-29.347109h5.138893z m398.062681 10.277786H362.077835v8.791537h392.961575l-0.050382-8.791537z m-457.953456 25.165461h539.331857l-60.608708 42.534416-0.138549 0.062977c-0.062977 0-8.930086 5.819041-18.452152 5.81904H359.697319s-10.769004-0.541599-18.389176-5.882017l-60.608709-42.534416h16.336138z m506.722558 10.265191H313.245756l33.944404 23.792571c4.723247 3.375547 11.499533 3.992718 12.721279 4.043099h397.269176c6.00797 0 11.701058-3.451119 12.645707-3.992718v-0.062977l33.931808-23.779975z m-462.449987 32.244034h-100.850775l63.833112 52.875179h-7.003002v7.305289l-85.408905-70.458254h114.818992l14.610578 10.277786z m10.479311 115.448758v-96.089742h164.935793l1.549225 10.353358H362.077835v85.748979h-10.290381z m403.226765 0v-90.887872H598.806986l1.624798-10.353358H765.292005v101.228635h-10.277786z m-457.726741 16.361328v-78.909717h54.499976v10.353358h-44.234785v68.556359h-10.265191z m162.492301-6.020565h-122.250234v6.00797h441.957392v-6.00797h-122.187257l-15.492251-10.353358h147.957294V735.567036H327.239164v-26.626519h148.02027l-15.479655 10.353358z m58.492693-39.007725v-31.853579h-6.058351v35.909274l-10.277786 6.826667v-53.013727h26.639114v35.292103l-10.302977 6.839262z m70.256728-6.826667v-35.304698h26.639115v53.013727l-10.340763-6.826667v-35.909274h-6.020566v31.853579l-10.277786-6.826667z m-280.623862 81.806642h523.172054l-79.803985 39.624896-0.340074 0.125953s-7.368266 3.249594-14.068979 3.249594H380.189914c-0.062977 0-8.930086 0.062977-14.673555-3.514096l-79.589865-39.486347h21.978844z m479.289939 10.353358H329.80861l40.834047 20.202903 0.277097 0.201525c3.048069 1.952276 9.194588 1.952276 9.27016 1.952276h356.687036c4.0431 0 8.766347-1.826322 9.88733-2.292349l40.430997-20.064355zM345.363838 784.751784h-90.925658l31.652054 20.555571c0.075572 0.062977 7.582386 4.597294 15.215153 4.597294h55.910652v10.277786h-55.910652c-10.479311 0-20.429619-5.944994-20.429618-6.00797-20.139926-13.464403-40.758475-26.513161-61.125117-39.700467h104.843493l20.769693 10.277786z m55.45722 22.658991h-6.020566v140.374908h6.020566V807.410775z m-11.235031-9.144207h21.500221v158.625535h-26.639114V798.266568h5.138893z m321.546076 0h21.437245v158.625535h-26.639114V798.266568h5.201869z m11.146864 9.144207h-6.007971v140.374908h6.007971V807.410775z m-109.277048-9.144207h21.500221v109.554145h-26.639114v-109.554145h5.138893z m11.235031 8.665585h-6.058352v92.235571h6.058352v-92.235571z m-136.520738-8.665585h21.487626v109.554145h-26.626519v-109.554145h5.138893z m11.146863 8.665585h-6.00797v92.235571h6.00797v-92.235571z m22.180369-2.015253h80.937565l-5.340419 34.750505h-76.277294l-5.340418-34.750505h6.020566z m68.9846 10.252596h-62.964034l2.166396 14.194932h58.606052l2.191586-14.194932z m57.736974-89.867651l-89.263075-59.50032-89.187503 59.50032h-18.603296l98.218352-65.432718a13.867454 13.867454 0 0 0 9.597638 3.778597c3.589668 0.012595 7.040787-1.3477 9.67321-3.778597l98.11759 65.520885-18.552916-0.088167z m-94.401968 0v-56.0492l5.138893-3.45112 5.138893 3.45112v56.0492h-10.277786z m-226.123886 10.277786h-86.958131l37.206593 38.894367h-14.232718l-47.068733-49.172153h111.040393l0.012596 10.277786z m46.325608-250.596605H339.947847v51.729004h-24.208216v14.257908h-10.353358v-24.535694h24.246003v-51.791981h43.882115l0.050381 10.340763z m348.172596-133.132595h-121.620468l-1.624797 10.277785h123.25786l-0.012595-10.277785z m53.958376 75.93722h57.925904l-53.353801 46.854612h7.103764l0.062977 7.443838 73.506322-64.651808h-73.279606l-11.96556 10.353358z m-26.374612 16.021254l-7.368266 17.243002h1.624797v13.590356l18.666273-35.695154-7.103764 3.514096-5.81904 1.3477z m-5.730874 41.186716h33.616925v51.729004h24.208217v14.257909h10.353358v-24.54829h-24.246003v-51.791981h-43.919901v10.353358z m0.062977 30.556261v-54.499975H600.797048l-1.624797 10.277785h134.165412v44.234785l10.315572-0.012595z m7.16674 29.359705l-4.937367 6.070947h13.250283l5.000344-6.070947h-13.31326z m24.92615 48.617958h100.825585l-63.833112 52.875178h7.028192l-0.062977 7.305289 85.534859-70.458253h-114.869373l-14.623174 10.277786z m44.008069 131.784895v-78.909717h-54.499975v10.353358h44.159213v68.556359h10.340762z m-296.783665-35.556605l14.194932 35.569201 12.116704-0.125954-17.293383-41.350455-9.018253 5.907208z m-19.812448 13.250283l21.525412 22.318918 10.680837-0.201526-23.528069-27.986814-8.67818 5.869422z m-162.756802 32.584108l15.756753 19.673899h-13.14952l-15.756753-19.673899h13.14952z m409.096187 90.547799h-16.965904v10.277786h16.965904v-10.277786z m268.683493 84.45166H732.569348v10.277786h216.286937c23.376925-3.312571 46.363395-6.738499 69.375056-10.277786h-0.050382z m-202.419483-1.083198v-89.326052h-10.353358v90.40925h9.131611l1.221747-1.083198z m-18.930775 1.083198V869.203444h-10.277786v41.388241h10.277786z m-37.042854 0v-119.957884l-10.277785 5.000344v114.95754h10.277785z m18.3262 0V869.203444h-10.277786v41.388241h10.277786z m27.319262-51.653432h-45.645462v10.277786h45.645462v-10.277786z m-33.742878-74.186469h90.925658l-31.715031 20.555571c0 0.062977-7.569791 4.597294-15.139582 4.597294h-55.998819v10.277786h55.998819c10.416335 0 20.354047-5.944994 20.429619-6.00797 20.152522-13.464403 40.77107-26.513161 61.137712-39.700467H792.497909l-20.807478 10.277786z m18.049102-49.172153h86.95813l-37.181402 38.881771h14.207527l47.144305-49.172152H789.726937l0.012596 10.290381z m-13.12433 0l-15.756753 19.673899h13.12433l15.756753-19.673899h-13.12433z m-168.739582 90.560394h-9.093825l-1.549225 10.277786h10.680836l-0.037786-10.277786zM288.63449 169.079656c-1.209151 0-9.333137-0.277097-14.371267-6.436212-2.430898-2.896925-4.8492-8.123985-2.985093-16.701402 1.952276-9.433899 8.212153-15.391488 17.457122-16.877737 1.952276-0.277097 4.106076-0.37786 6.247282-0.277097v-0.18893c-1.120984-3.828979-3.274785-13.351046 1.587011-19.220467 4.8492-5.869422 10.265191-7.003001 13.90524-6.801476 5.403395 0.277097 10.177023 3.274785 13.804477 6.436211 2.330135-4.383173 5.970185-9.144207 11.285412-11.952964 5.60492-2.972497 12.230062-3.174022 19.031538-0.554195 9.799164 3.728216 13.426617 10.076261 14.824698 14.648365 1.498844 5.126298 0.843887 10.454121-0.654957 15.114391 6.713309-1.587011 14.459434-2.053038 20.530382 1.587011 4.106076 2.418303 9.056039 7.834293 9.056039 19.308634 0 17.910554-13.71631 21.928462-18.94337 21.928463l-90.774514-0.012595z m0-11.56251h90.686346c2.153801-0.088167 7.368266-1.209151 7.368266-10.26519 0-4.8492-1.120984-8.023223-3.350357-9.433899-5.504157-3.350357-18.376581 1.398081-23.704403 4.295006l-7.368266-8.577417c2.330135-3.07326 7.834293-12.507159 5.970185-19.1323-0.843887-2.985092-3.451119-5.327823-7.746126-7.003002-3.640049-1.398081-6.801476-1.398081-9.433899 0-5.403395 2.796162-8.48925 11.008315-9.144206 13.90524l-10.441526 1.952276c-1.964871-2.796162-7.280098-8.778942-11.486937-8.955277-0.654957 0-2.153801-0.088167-4.383173 2.607232-0.37786 0.554194-0.843887 3.07326 0.188929 7.280099 0.932054 3.828979 2.519065 6.524379 3.551882 7.746125 2.241968 0.932054 4.005314 2.153801 4.672866 3.350357l-0.466027 6.536974-7.091168 1.775941c-1.120984-0.37786-2.153801-0.843887-3.07326-1.498844-4.005314-1.297319-11.197245-2.707995-15.958278-0.466027-1.587011 0.743124-3.816384 2.330135-4.8492 6.902239-0.466027 2.241968-0.743124 5.22706 0.654957 6.902239 1.662583 1.889299 5.302632 2.078229 5.403395 2.078228z m790.82273 307.237786h-66.717441l-2.808758-0.654957c-5.693087-3.07326-15.391488-12.129299-11.940369-24.825387 1.675178-6.159114 5.403395-10.83198 10.731218-13.426618 5.126298-2.519065 11.008315-2.707995 16.147207-2.053038-0.554194-3.262189-0.466027-6.524379 0.277098-9.597638 2.241968-8.577417 9.232374-13.52738 19.308634-13.628143 8.123985-0.277097 14.560197 2.607232 19.308635 7.746126 4.8492 5.315228 6.725904 12.318229 7.368266 17.721623 5.403395-1.020221 12.318229-1.398081 17.255596 2.053038 2.519065 1.775941 5.403395 5.138893 5.403395 11.285413 0 21.8277-11.940369 25.001722-13.351045 25.278819l-0.982436 0.100762z m-65.042263-11.562509h64.009446c0.75572-0.554194 3.917146-3.451119 3.917147-13.804477 0-0.932054-0.18893-1.587011-0.466027-1.775941-2.053038-1.398081-9.156802-0.466027-14.182337 1.398081l-7.746126-5.970184c0.277097-3.07326-0.100763-12.028536-4.572103-16.9785-2.418303-2.607232-5.869422-3.929742-10.542288-3.929741h-0.100762c-5.970185 0-7.368266 2.519065-8.023223 4.47134-1.398081 4.383173 0.843887 9.988093 2.153801 10.920148l-5.126298 10.353358c-3.451119-1.498844-13.71631-4.572103-19.875424-1.587011-2.330135 1.120984-3.728216 2.985092-4.572104 6.070947-1.498844 5.41599 2.985092 9.244969 5.126298 10.83198zM159.053776 478.723149h-72.045264l-3.022879-0.705338c-6.146519-3.325166-16.62583-13.099139-12.897613-26.802854 1.813727-6.650332 5.844231-11.688462 11.5877-14.509816 5.541943-2.72059 11.889988-2.922116 17.431931-2.216777-0.604576-3.526691-0.503813-7.053383 0.302287-10.378549 2.418303-9.27016 9.975498-14.610578 20.85786-14.71134h0.201525c8.665584 0 15.618204 2.821353 20.656335 8.363296 5.239656 5.743469 7.254908 13.300664 7.960246 19.144896 5.844231-1.108389 13.300664-1.511439 18.641082 2.216777 2.72059 1.91449 5.844231 5.541943 5.844232 12.192276 0 23.57845-12.897614 27.004379-14.409053 27.306666l-1.108389 0.100763z m-70.231537-12.494564h69.123148c0.806101-0.604576 4.23203-3.728216 4.23203-14.912865 0-1.007626-0.201525-1.712964-0.503813-1.91449-2.216777-1.511439-9.874736-0.503813-15.315916 1.511439l-8.363297-6.448807c0.302288-3.325166-0.100763-12.998376-4.937368-18.338794-2.619828-2.821353-6.348044-4.23203-11.386174-4.23203h-0.100763c-6.448807 0-7.960246 2.72059-8.665584 4.836605-1.511439 4.735843 0.906863 10.781599 2.31754 11.789225l-5.541944 11.18465c-3.728216-1.612202-14.812103-4.937368-21.462435-1.712964-2.519065 1.209151-4.030504 3.224403-4.937368 6.549569-1.612202 5.844231 3.224403 9.975498 5.541944 11.688462z" p-id="87026" fill="#e5a3e2"></path></svg>