<svg t="1711675779486" class="icon" viewBox="0 0 1024 1024" version="1.1" xmlns="http://www.w3.org/2000/svg" p-id="95929" width="256" height="256"><path d="M493.714286 0m256 0l0 0q256 0 256 256l0 0q0 256-256 256l0 0q-256 0-256-256l0 0q0-256 256-256Z" fill="#FBEFD8" p-id="95930"></path><path d="M549.339429 228.48h0.018285c6.710857 7.808 6.144 27.373714-7.204571 38.345143l-53.540572 42.331428c-0.548571 0.621714-1.206857 1.097143-1.773714 1.645715-0.475429 0.457143-0.859429 0.969143-1.353143 1.389714-0.219429 0.182857-0.438857 0.292571-0.64 0.438857a21.942857 21.942857 0 0 1-1.718857 1.206857 24.905143 24.905143 0 0 1-3.145143 1.846857l-1.28 0.585143a25.106286 25.106286 0 0 1-4.644571 1.517715l-0.182857 0.018285a24.228571 24.228571 0 0 1-14.628572-1.005714l-0.128-0.036571a26.587429 26.587429 0 0 1-11.392-7.789715L403.346286 265.142857a1.609143 1.609143 0 0 0-2.816 1.371429l13.696 81.042285a19.748571 19.748571 0 0 1-19.401143 23.04l-114.907429 0.402286a19.748571 19.748571 0 0 1-19.547428-22.893714l13.037714-81.828572a1.609143 1.609143 0 0 0-2.889143-1.334857l-50.523428 86.674286c-6.546286 10.715429-23.277714 17.554286-35.821715 12.525714-12.251429-4.900571-17.974857-22.857143-12.470857-34.048l49.188572-85.156571c0.493714-0.987429 1.078857-1.92 1.718857-2.797714 22.162286-30.116571 44.269714-47.250286 78.409143-47.250286h64.676571c26.276571 0 49.499429 12.580571 66.157714 29.476571a751.963429 751.963429 0 0 0 33.846857 31.689143 3.657143 3.657143 0 0 0 5.613715 0.073143l37.558857-28.196571c11.483429-9.051429 32.036571-9.270857 40.466286 0.548571z m-272.402286-102.217143a56.978286 56.978286 0 1 1 113.938286 0 56.978286 56.978286 0 0 1-113.938286 0z" fill="#504F51" p-id="95931"></path><path d="M744.96 256.621714l-76.489143 76.251429a40.100571 40.100571 0 0 1-56.649143 0 39.899429 39.899429 0 0 1 0-56.484572l101.961143-101.686857a40.009143 40.009143 0 0 1 31.158857-11.611428 40.009143 40.009143 0 0 1 31.158857 11.611428l101.961143 101.686857a39.899429 39.899429 0 0 1 0 56.502858 40.100571 40.100571 0 0 1-56.649143 0l-76.470857-76.269715z" fill="#504F51" p-id="95932"></path><path d="M123.337143 493.714286h753.298286v402.285714H123.337143z" fill="#FFFFFF" p-id="95933"></path><path d="M108.489143 404.425143c-35.766857 0-64.731429 37.577143-64.731429 83.931428V897.645714c0 22.272 6.802286 43.629714 18.944 59.373715 12.141714 15.725714 28.617143 24.576 45.787429 24.576h784.822857c35.748571 0 64.731429-37.577143 64.731429-83.931429V488.356571c0-46.372571-28.982857-83.949714-64.731429-83.949714H108.489143z m758.125714 485.723428h-731.428571V495.853714h731.428571V890.148571z" fill="#504F51" p-id="95934"></path><path d="M693.248 705.682286c-24.246857 7.131429-270.573714 76.562286-270.573714 76.562285s-68.224 22.253714-118.674286-37.705142l56.009143-22.674286c9.746286 3.218286 18.779429 2.944 30.829714-0.804572l63.670857-15.378285-95.524571-137.782857s-19.346286-29.915429 47.725714-15.305143c0 0 121.362286 90.514286 143.232 107.136 0 0 11.209143 6.217143 31.853714 0l95.506286-30.628572s64.676571-19.254857 79.542857 15.323429c15.707429 36.242286-39.442286 54.125714-63.597714 61.257143z m-400.091429 21.174857c-24.173714-27.885714-28.781714-44.288-28.781714-44.288s4.992-34.084571 46.262857 0c12.050286 9.984 24.832 16.822857 32.969143 22.4l-50.450286 21.888z" fill="#CB9D6D" p-id="95935"></path></svg>