<svg t="1711609853452" class="icon" viewBox="0 0 1024 1024" version="1.1" xmlns="http://www.w3.org/2000/svg" p-id="83545" width="256" height="256"><path d="M173.348571 148.279777c32.973127 20.511872 70.088019 35.535987 111.344677 45.07071 61.885395 14.30331 196.607183 13.128121 271.094398 13.128121 120.416026 0 222.013497-8.895642 304.793232-26.68611-8.654557 94.588833-20.867371 146.883116-36.638442 156.884482-14.285331 9.058273-111.829299 26.6714-207.669325 33.907231 16.665947-13.638895 27.302308-34.368153 27.302308-57.581817 0-41.072779-33.295936-74.368715-74.368715-74.368715s-74.368715 33.295936-74.368715 74.368715c0 25.058988 12.393424 47.223317 31.386049 60.696313-28.363084-0.500967-53.515237-2.811301-72.382825-7.616664-17.48482 64.383694-31.008485 108.954254-40.571812 133.71495-30.128319 78.005427-76.550742 184.715543-139.264817 320.128715L98.208383 821.921405l225.244042-450.017354c3.734781-15.015125-0.829497-25.739748-13.694468-32.174685C290.461318 330.075326 178.077931 332.587518 98.208383 193.350487c49.698733 49.020425 88.221727 75.33796 115.568166 78.951789-24.647917-16.708444-42.010969-32.000613-52.088338-45.876507-10.07737-13.876712-17.803543-27.039157-23.178522-39.488971 18.59463 14.997146 33.655521 27.037523 45.184306 36.121947 8.558123 6.74467 33.307377 20.821606 44.895821 17.045146C195.321666 215.353002 176.908463 195.248932 173.348571 179.792498c17.841954 19.542627 45.191662 32.215547 82.04749 38.019575-28.380246-21.070864-55.729136-44.248568-82.04749-69.533114z" fill="#D61E19" p-id="83546"></path><path d="M170.990838 305.598212c81.828469 62.924923 203.539001 96.842777 365.131595 101.752747 161.585239-6.270672 269.737781-17.490541 324.458445-33.65879-1.399113 26.407432-2.659294 45.140993-3.779729 56.201501-6.210196 61.30679-18.164763 93.336824-35.864517 96.089283-33.733159 5.246672-62.76883 9.31652-119.72219 17.652354-7.542295 1.104089-33.769935 0.240268-17.08846 33.054851 11.122618 21.875844 68.384894 148.949912 171.789281 381.224658H671.359898c-54.522075-215.567119-89.971435-323.35027-106.348897-323.35027-16.377462 0-51.81865 107.783151-106.322746 323.35027H277.077401l156.85261-381.225475c3.313903-16.091429-2.802311-24.137143-18.349459-24.137143-23.319904 0-120.635045 14.322924-221.915428-135.128773 28.85261 14.461855 41.866318 18.077318 39.041941 10.846391-4.235748-10.846391-61.535617-73.134685-72.456377-88.041117 76.656983 54.83426 111.946982 77.207802 105.869178 67.12226-6.077804-10.085542-37.78748-44.003397-95.129845-101.752747z" fill="#FFA72A" p-id="83547"></path><path d="M572.884278 110.735834m-69.056664 0a69.056664 69.056664 0 1 0 138.113328 0 69.056664 69.056664 0 1 0-138.113328 0Z" fill="#D61E19" p-id="83548"></path></svg>