<svg t="1711609368077" class="icon" viewBox="0 0 1024 1024" version="1.1" xmlns="http://www.w3.org/2000/svg" p-id="72394" width="256" height="256"><path d="M709 200.3c-1.3 0-10.2-0.3-15.7-7-2.6-3.2-5.3-8.9-3.3-18.2 2.2-10.3 9-16.8 19.1-18.4 2.1-0.3 4.4-0.4 6.9-0.3 0-0.1 0-0.1-0.1-0.2-1.2-4.2-3.6-14.5 1.8-21 5.3-6.5 11.1-7.6 15.2-7.4 5.9 0.3 11.1 3.6 15.1 7 2.6-4.8 6.5-10 12.4-13.1 6.2-3.2 13.4-3.5 20.8-0.6 10.7 4.1 14.7 11 16.2 16 1.6 5.6 0.9 11.4-0.7 16.5 7.3-1.8 15.8-2.3 22.4 1.7 4.5 2.7 9.9 8.6 9.9 21.1 0 19.6-15 23.9-20.7 23.9H709c0.1 0 0.1 0 0 0z m0.1-12.7h99.1c2.3-0.1 8-1.3 8-11.2 0-5.3-1.3-8.8-3.7-10.3-6.1-3.6-20 1.6-25.9 4.7l-8.1-9.4c2.5-3.4 8.6-13.7 6.5-20.9-1-3.3-3.7-5.8-8.5-7.6-4-1.5-7.5-1.5-10.3 0-5.9 3.1-9.2 12-10 15.2l-11.4 2.1c-2.1-3.1-8-9.6-12.6-9.8-0.6-0.1-2.4-0.1-4.8 2.8-0.4 0.6-0.9 3.4 0.2 7.9 1 4.2 2.7 7.1 3.9 8.5 2.5 1.1 4.3 2.3 5.1 3.6l-0.5 7.2-7.7 2c-1.2-0.4-2.3-0.9-3.3-1.6-4.3-1.4-12.3-3-17.4-0.5-1.8 0.8-4.2 2.5-5.3 7.5-0.5 2.4-0.8 5.7 0.7 7.5 1.8 2.2 5.8 2.3 6 2.3zM280 270.5h-72.9l-3-0.8c-6.2-3.3-16.9-13.3-13-27.1 1.9-6.8 5.9-11.8 11.7-14.6 5.6-2.7 12-2.9 17.6-2.3-0.6-3.5-0.5-7.2 0.3-10.5 2.4-9.4 10.1-14.8 21.1-14.9 8.2-0.1 15.9 2.8 21.1 8.5 5.3 5.8 7.3 13.5 8 19.4 5.9-1.1 13.5-1.5 18.9 2.2 2.7 1.9 6 5.6 6 12.3 0 23.9-13.1 27.3-14.6 27.6l-1.2 0.2z m-71.1-12.7h70c0.8-0.6 4.3-3.8 4.3-15.1 0-1-0.2-1.7-0.5-1.9-2.2-1.6-10-0.5-15.5 1.5l-8.5-6.5c0.3-3.3-0.1-13.1-5-18.5-2.7-2.9-6.5-4.3-11.5-4.3h-0.1c-6.5 0-8.1 2.8-8.8 4.9-1.5 4.8 0.9 10.9 2.4 12l-5.6 11.4c-3.8-1.6-15-5-21.7-1.8-2.5 1.2-4.1 3.3-5 6.6-1.8 5.8 3.1 10 5.5 11.7zM1007.8 561.5h-72.9l-3-0.8c-6.2-3.3-16.8-13.3-13-27.1 1.9-6.8 5.9-11.8 11.7-14.6 5.6-2.7 12-2.9 17.6-2.3-0.6-3.5-0.5-7.2 0.3-10.5 2.4-9.4 10.1-14.8 21.1-14.9h0.2c8.7 0 15.8 2.8 20.9 8.5 5.3 5.8 7.3 13.5 8 19.4 5.9-1.1 13.5-1.5 18.9 2.2 2.7 1.9 6 5.6 6 12.3 0 23.9-13.1 27.3-14.6 27.6l-1.2 0.2z m-71.1-12.6h70c0.8-0.6 4.3-3.8 4.3-15.1 0-1-0.2-1.7-0.5-1.9-2.2-1.6-10-0.5-15.5 1.5l-8.5-6.5c0.3-3.3-0.1-13.1-5-18.5-2.7-2.9-6.4-4.3-11.5-4.3h-0.1c-6.5 0-8.1 2.8-8.8 4.9-1.5 4.8 0.9 10.9 2.4 12l-5.6 11.4c-3.8-1.6-15-5-21.7-1.8-2.5 1.2-4.1 3.3-5 6.6-1.8 5.7 3.1 10 5.5 11.7z" fill="#3EC69F" p-id="72395"></path><path d="M107.3 309.5c4 5.2 8 10.5 12.1 15.6 0.9 24.4-5.4 50.6 7.9 72.8 1.8 32.3 1.1 64.7 2.3 97.1 12.7 2.7 28 1.6 37.8 11.6-3.3 18.4-30 1.3-39.7 15.8l11 3.3c-3.5 3.5-7.1 6.9-10.7 10.4-1.4-4.1-4.1-12.2-5.5-16.3l-12.8-5.8c-8.6 1.6-22.2-2.3-21.8 10.9 10.1 0.9 21-1.1 30.4 3.6l0.9 2.4c-11.2 4.8-24.3 1-36.3 0.9-0.9-7-1.9-14.1-2.8-21.1-3.5 7-6.9 14-10.4 21-1.7-4.9-3.3-9.7-4.9-14.5-2.3 5.1-4.7 10.2-7 15.3-16.5-4.5-33.7-5.9-50.7-5.7 0.1 6.8 0.1 13.6 0.1 20.5 56.4 1.3 112.7 7.1 169.2 6.7 31.9 4.5 64 4.2 96.1 4-0.8-3-2.4-8.9-3.3-11.9-41.1-3.4-82.5-9-123.9-7.1l-1-9.7c36.9 2.5 73.7 5.3 110.5 8.2 0-6.6 0-13.1-0.1-19.7-4.6-0.3-13.8-0.8-18.4-1.1l1.9-15.5c19.6-4.1 39.9-1.9 59.8-2.3 1.5-38.4-2.7-77 2.3-115.2 5.1 0.6 15.4 1.7 20.5 2.2 0.2-13.5-1.3-27.1 0.8-40.5 10-13.9 23.8-24.4 37.2-34.8 19.6 15 15.2 39.9 14.8 61.5-1.8 14.9 11 26.6 9.6 41.5-0.5 28.9 0.5 57.9 0.8 86.8 8.6 0.5 16.5 3 23.5 7.5-10 0.3-20.1 0.4-30.2 0.2 10.5 1.4 21.1 2.7 30.8 7.4-5.4 7.2-6.9 16.1-8.2 24.7 8.2 0.9 16.4 1.9 24.6 2.8l2.3 18.6c189.4 4.3 378.5 17.8 567.1 35.1 8.9 0.1 16.8 3.8 21.2 11.8v8.6c-5.4-0.4-10.5 1.1-15 4.4 2.9 5.5 9.3 7.3 15 8.4v9.9c-12 2.5-24.1 4.5-36.2 6.2-5.5 22.6-7 46.2-14.5 68.3-18.6 1.1-39.3 5.1-56.7-2.4-6.7-14.7-5.6-31.6-9.3-47.2-10.7 20.4-7.2 43.8-11.1 65.7-22.5 5.4-46.6 1.8-69.7 0.7 0.2-20.3-1.5-40.7-6.8-60.4-9 25.5-9.1 52.6-11.5 79.1-24.5-0.2-49 0.2-73.5-0.6-1.1-21.6-0.7-43.7-8.5-64.3-8.8 23.9-10.5 49.5-9.9 74.8-29.4 2.7-59 2.6-88.5 0.1 0.4-27.2-4.9-54.2-16.6-78.9-19.3 18.5-21.7 47.2-38.7 67.3 4.2-23.6 13.8-45.9 26.6-66 3.3-5.5 15-9.7 18.5-2.5 13.1 22.4 16.6 48.9 17.3 74.4 24.5 0.4 49.1 0.4 73.6 0.1-0.6-30.8 5.2-61.4 17.7-89.5 14.1 23.4 14.1 51.5 14.7 77.9 20.1-0.1 40.2-0.1 60.4 0.3 1.3-22.5 2.3-45.2 9.5-66.7 5.7-16.2 6.8-34.7 18.7-48.1 3.6 6.1 7.2 12.1 10.8 18.2-7.1 0.9-14.1 1.8-21.2 2.7 11.2 23.9 14.7 50.2 14.4 76.4 18.7 0.3 37.5 0.4 56.3 0.2 0.6-27.5 3.5-56 15.4-81.1 3.5-4.9 8.8 5 7.2 7.6 4 18.5 6 37.3 8.8 56 15.7 0.4 31.4 0.5 47.1 0.4 4.9-22.4 6.5-45.6 14.2-67.3 10.4-4.7 22.1-4.6 33.1-6.5l-23.4-10.8 10.4-9.8c-11.9-0.8-23.8-1.7-35.7-2.6 4.4 3.4 8.8 6.7 13.2 10l-14.4 13.8c-4.3-4.7-8.6-9.3-13-14 2.2-2.6 6.4-7.8 8.6-10.4-9.7-0.5-19.4-0.9-29-1.3 3 4.6 6 9.2 8.9 13.8-4.6 4.1-9.1 8.2-13.6 12.3-5.8-8.4-11.2-17.6-4.4-27.4-9.1-0.8-18.2-1.7-27.2-2.7 2.8 5.2 5.8 10.4 8.2 15.9-1.4 8-7.2 14.2-11 21.1-5.3-6.9-13.2-12.8-14.8-21.8 2.7-5.2 5.7-10.2 8.9-15.1-10.5-0.9-21-2-31.5-3.2 3.7 5.7 7.4 11.5 11.1 17.4-5.1 8.6-10.2 17.2-15.4 25.7-5.7-7.8-14.9-14.5-15.4-24.9 2.5-8 5.9-15.6 8.8-23.5-5.9 4.2-11.3 8.9-16.7 13.7-5.3-6-11-11.5-18.2-15.1 4.1 8.6 8.7 17.1 13.4 25.5-5.2 8.6-10.6 17.2-16.1 25.7-6.7-8.7-13.5-17.4-20.1-26.1 5-8.9 9.8-17.8 14.1-26.9-7.4 5.3-14.1 11.5-20.2 18.3-5.8-8.7-12.1-18.1-23.5-19.7 6 9.5 12.5 18.6 19.1 27.8-7.2 10-14.6 19.9-22 29.9-3.2-2.5-9.5-7.6-12.7-10.2l3.5 16.7c-12.7 1-25.5 2.3-38.2 3.5 6.5-10.4 12.9-20.8 20.7-30.3 1.7 3.4 5 10.1 6.7 13.5 2-2.7 4-5.3 6-8-11.9-15.4 4.2-30.1 9.8-44.1-10.6 5.3-17.4 14.9-24.2 24.2-6.6-6.4-10.9-25-22.1-20.3 4.5 8.5 11.4 15.7 14.7 24.9 0.5 13.6-10.3 23.6-18.1 33.3-6.5-10.5-14.3-20.6-18.3-32.4 3.6-8.9 9.1-17.1 11.1-26.7l-0.4-3.8c-6.6 7.2-12.6 15-18.6 22.8-6.5-10.5-11.4-24-24.7-27.5 6.2 12 13.5 23.4 20.9 34.7-6.9 13.1-14.6 25.7-23.3 37.7-7-11.5-15-22.7-19.9-35.4 4.5-13.5 12.7-25.4 17.7-38.8-11.4 7.1-17.6 19.2-24.2 30.4-7.5-12-12.6-27.3-27.2-32.4 6.3 13.3 14.9 25.3 20.9 38.7-2.6 16.3-14.7 29.5-22 44-7.9-13.5-15.5-27.2-22.9-40.9 6.9-13.9 14.1-27.6 20-42-14.3 5-17.5 21.3-24.3 33.1-6.1-10.5-11.9-21.1-17.5-31.8 7.9-0.4 15.7-1 23.6-1.7-16.9-0.6-33.9-0.1-50.8-0.6-5.2 12-10.8 23.8-16.8 35.3-8.4-13.4-10-35.2-28-39.2 8.2 16.1 16.8 31.9 23.9 48.5-8.7 19.2-17.7 38.3-26.8 57.3-9.1-18.5-18.2-37-26-56.1 1.9-6.5 3.6-13.1 5.3-19.7 3.1-1.3 9.2-4 12.3-5.4-3.2 8.2-6.5 16.4-9.9 24.5 5.8 13.2 11.8 26.2 17.8 39.2 6.9-13.1 13.4-26.5 19.5-39.9-6.1-13.3-12.5-26.3-19.4-39.2l-1.7 11.5c-3-3.3-5.9-6.7-8.7-10l7.5-5.9-5.9-6.9c-17.1 0.1-34.1 0.8-51.2 1.3 7.9 16.4 17.4 32.2 22.9 49.6-5.2 25-25.2 45.4-24.8 71.9 5.1-9.1 11.6-17.1 21.1-8.3 27.7 26 43.9 64.3 42.8 102.4 30.7 0.1 61.5 0.1 92.2 0 2.1-16.9-2-37.3 11.3-50.5-3.9 18.2 0.9 40.7-8.1 56.6-33.7 2-67.8 1.9-101.6-0.1-2.5-13.3-1.8-27.1-4.6-40.4-5.4-20.7-17.1-38.8-29.1-56.2l-24.4 2.2c-0.8 45 1.6 90-2.4 134.9-25.1 8.2-51.9 3.7-77.9 4.9-35.7 1-71.6-2.7-107.2 1.6-3.3-2.5-6.6-5.1-9.9-7.7l12.7 1.1c-6.7-32.7 0.5-66.8-2.2-100.1l-20.1 2.1c0.3 28 0.3 56-0.1 84 5.9 2.2 11.7 4.6 17.5 7-6.3 1.8-18.9 5.3-25.2 7.1 4.3 5.3 8.8 10.5 13.3 15.7-22.5-1.8-43 8.6-64.2 14-40.2 13-81.9 21.2-121.1 36.9H0.8V519.8c19.1 0.3 38.3-0.1 57.4 0.5-0.3-1.5-0.8-4.3-1.1-5.7-18.6-1.9-40.6 3.7-56.2-8.6 25.2 1 50.3-0.9 75.4-2.1-21.1-1.6-42.4-3-63.5-0.9-3.6-2.4-7.1-4.8-10.7-7.3 13.6-0.6 27.2-0.9 40.8-1 1.3-37.3-1.9-74.7 1-111.7 6.9-4.7 16.2-1.4 24-2.4-1-11.4-4.1-23.2-1.3-34.6 7.5-14.6 19.7-26.3 32.4-36.4h8.3m5.1 16.1c-4.2 3.9-8.4 7.9-12.3 12.2 2.3 11.6 4.5 23.4 4.8 35.3 1.6-0.9 4.9-2.8 6.6-3.7 1-14.7 0.3-29.3 0.9-43.8m255.1 4.1l-14 13.1c4.2 10.6 5.3 22 5.6 33.3 1.9 0 5.6-0.1 7.6-0.2 0.1-15.4 0.3-30.8 0.8-46.2M77.4 362.9c-17.1 1.3 8.4 15.1 0 0m41.9 32.2c-23.2-2.9-46.8-2.8-69.6-8.6 0.5 2.9 1.5 8.7 1.9 11.5 23.8 2.6 47.7 5 71.7 5.1l-4-8m254.2 3.5c-22.7 0.5-45.1-3.6-67.5-6.6l-2 10.4c24.7 1 49.2 5.7 73.9 5.3-0.9-2.4-3.2-6.9-4.4-9.1m-253.2 15.2c-23.2-2.5-46.4-6.4-69.8-6.1 0 7.2-0.1 14.5-0.1 21.8 23.8 3.5 47.9 4.4 71.9 5.4-0.6-6.9-1.3-14-2-21.1m255.5 4.5c-23.2-3.6-46.7-5.7-70.3-5.9V434c23.6 2.4 47.1 5.1 70.8 5.5-0.1-7.1-0.3-14.2-0.5-21.2m-257.2 27.5c-22.7-3.2-45.7-4.7-68.4-7.2-0.2 18.7-0.3 37.5 0.4 56.2 23.7-0.4 47.4-0.5 71 0.5-0.7-16.3 4.1-34.6-3-49.5m256.3 4.1c-23.2-1.9-46.3-5.9-69.7-6.1-0.1 18.3-0.1 36.7 0 55 23.9 0.4 47.7 1.2 71.6 2.3 0.4-17 0.7-34.2-1.9-51.2m-11.9 59c-40.3-1.3-80.8-2.4-121.1-1.1 10.1 5.3 21.8 2.8 32.7 3.3 29.4-1.4 59-0.6 88.4-2.2m-7.5 8.4c-12.7 0.8-10.1 14-11.8 23.2 16.7 3.4 10.7-14.5 11.8-23.2m-19.4 1.5c-9.3-1.8-12 15.9-3.3 18.5 7.4-1.7 7.9-13.7 3.3-18.5m-15.3-0.7l-17.5-0.2c-0.6 6.9-1.2 13.8-1.9 20.8 6.5 0.2 13.1 0.4 19.6 0.5 0-7-0.1-14-0.2-21.1m-26.4 0c-10.1-2.9-11.8 17.2-3.4 20.2 8.1-1.9 8.6-15 3.4-20.2m-12.8 1c-2.7-0.5-8.1-1.6-10.8-2.1-0.1 7.2-0.1 14.3-0.2 21.5 2.3 0 7 0.1 9.4 0.1l1.6-19.5m137.9 29.7c-12.1-0.3-24.1-0.4-36.2-0.7l-0.4 9.5c11.8 0.9 23.6 2 35.4 3.1 0.2-3 0.9-9 1.2-11.9m-45.5-0.4c-31.9 0.6-64.9-5.6-96 3.8 12.2 9.5 28.6 7.3 43 6.8 16.9-1.6 33.9-0.2 50.8-2 0.5-2.1 1.6-6.4 2.2-8.6m-302.1 9.7c-7.1-0.4-14.3-0.9-21.4-1.3-0.1 51.2-0.1 102.4 0 153.7 7.2-0.7 14.5-1.3 21.7-2-0.4-50.1-0.4-100.3-0.3-150.4m-28.7-0.5c-11.5-0.4-23.1-0.7-34.6-1-0.7 113.8-0.2 227.5-0.2 341.3 10.7-3.3 21.3-6.7 31.9-10.4 4.3-46.3 1.2-92.9 2.9-139.3 11.8-1.1 23.6-2.3 35.4-3.6 0.1 38 0.1 75.9-0.1 113.9 9.7-2.7 19.5-5.4 29.2-8.1 3.8-36-3-73.1 3.5-108.4 15-3.5 30.5-3.6 45.8-4.3-0.1 33.2 0.3 66.4-0.3 99.6 9.4-3.6 21.7-2.7 29.5-9.2 1.6-31.3 0.1-62.8 0.6-94.1 11.6-1.4 23.2-2.7 34.9-4 0.4 30.7 0 61.3 0.3 92 9.2-1.8 21.1 2.2 28.7-3.8 3.1-30-1.4-60.4 2.3-90.4l6.7-2.2 3.5 2.6c1.2 30.7 0.1 61.5 0.4 92.3l29.4 0.3c0-84.4 0.2-168.8-0.1-253.2-9.5 0.3-19.1 0.5-28.6 0.7-0.4 42.1 0.7 84.3-0.4 126.4l-11.6 3.1c0.1-43.3-0.2-86.6 0.2-130-10.2-0.7-20.4-1.3-30.6-1.8-0.3 44.9 0.3 89.7-0.3 134.6-11.3 1.1-22.6 2-33.9 2.7 0.2-46.7 0.2-93.4 0-140.1L158 563c-0.6 47.8-0.4 95.7-0.1 143.6-16.1 2-32.3 3.7-48.5 5.6-0.9-50.7 0-101.4-0.5-152.1-10.3-0.3-20.5-0.5-30.8-0.4 0.5 51.6 1.3 103.1 0.3 154.7-11.7 2.1-23.6 3.2-35.5 3.9 0.5-53.6 0.3-107.2 0.3-160.7m170.9 6.9c-4.7-0.2-14.1-0.5-18.8-0.7-0.7 43.9 0.1 87.9-0.5 131.8 6.6-0.5 13.3-1.1 19.8-1.6-0.1-43.1 1-86.4-0.5-129.5m-63.6-2.8l-34.2-1.8c0 47.9-0.1 95.8 0.1 143.7 11.1-0.9 22.3-1.8 33.4-2.5 1.7-46.4 0.4-92.9 0.7-139.4m238.8 6.8l-20.5 0.2c0.3 84.1 0.1 168.2 0.1 252.3l24.7 0.3c0.4-34.1 0.2-68.3 0.3-102.4 0.7-7.8-1.5-15.1-5.1-21.9 8.1-21.2 4.1-44.2 5-66.3-1-20.7 3.3-42.3-4.5-62.2m-28.8-0.7c-11.2-0.1-22.4-0.1-33.6-0.1 0.2 84.1-0.5 168.3-0.4 252.5 11.4 0.4 22.7 0.6 34.1 0.6 0-84.3 0.1-168.7-0.1-253m-41-0.9c-4.7 0.1-14.1 0.2-18.8 0.3-0.1 84.4 0.1 168.8-0.1 253.2 4.8 0.2 14.2 0.6 19 0.7-0.5-84.7 0.7-169.5-0.1-254.2m239.9 23c-7.4-2.7-9.7-0.4-7.1 6.9 7.3 2.7 9.7 0.4 7.1-6.9m-62.1-1.3c-16.9 1 7.7 15.8 0 0m-78.6 37c-4.3-13.1-11.2-25.2-17.8-37.2 0.2 26.2 0.5 52.3-0.2 78.5 6.2-13.6 15.1-26.5 18-41.3m196.4-30c-3 2.5-3 2.5 0 0m24.7 3.5c-4.8 7.2-9.5 14.5-14.3 21.7 3.9 8.4 8.8 16.5 14.7 23.7 4.4-7.9 8.8-15.7 13-23.7-4.5-7.2-9-14.4-13.4-21.7m-40.4 23.2c-5.3-8.9-11-17.6-17.1-26-4.6 9.3-9 18.7-13.2 28.3 4.9 8.4 9.9 16.8 15 25 5.2-9.1 10.3-18.2 15.3-27.3m103.3 2.3c0.7-8.8-7.2-14.5-11.9-20.9-3.5 5.6-6.9 11.3-10.4 17.1 3.7 6.6 7.5 13.3 11.2 19.9 4.3-4.9 9.5-9.5 11.1-16.1m139.8-16.4c-9.7 6.5-10.2 18.3-0.3 25 1.9-3.3 5.5-9.8 7.4-13-1.7-3.1-5.3-9.1-7.1-12m-36.2 12.4c-2.3-3.6-6.9-10.8-9.2-14.3-3.6 4.5-7.1 9-10.8 13.5 3.9 4.8 7.7 9.6 11.5 14.3 2.2-3.4 6.4-10.1 8.5-13.5m-47.2-0.5c-4.6-5.9-9.2-11.7-13.9-17.5-10.9 10.8-13.8 25-3.4 37.3 6.4-6 12.1-12.7 17.3-19.8m126.3-3.2c-6.5-5.4-11.6 6.4-6.2 10.4 6.4 6.1 12.1-6.4 6.2-10.4m71.7 5.1c-3 2.5-3 2.5 0 0M723 645.9c-15.4-8.4-1.1 17.1 0 0m-572.8 98.8c-11.4 1.1-22.9 2.2-34.3 3.2-0.5 33.6 0.4 67-0.4 100.6 11.7-2.9 23.3-6 34.8-9.3-0.2-31.6-0.1-63-0.1-94.5m-78.7 8.1c-5.3 0.6-16 1.7-21.4 2.2-0.2 37.1 0.1 74.1-0.1 111.3l21.7-6.2c-0.5-35.8 0-71.6-0.2-107.3m253.6 76.9c-18.3-5.8-36.8 4.5-55.5 1.1-14.5-2.1-29.2 0.1-42.8 5.2 43.6 0.2 87.1-0.9 130.7 0.9 10.7-0.2 21.9 1.5 32.1-2.7-21.5-2.2-43.5 1.9-64.5-4.5m-137.3 11c-30.3 5.1-60.9 9.8-89.1 22.8-16.7 7.6-43.1-0.8-51.4 19.7 10.4-0.2 20.5-2.4 30.3-5.7 35.2-11 70.9-20.1 105.8-31.5l4.4-5.3z m0 0" fill="#ED70A3" p-id="72396"></path><path d="M412.1 519.3c-4.6-5-4.7-9.9-0.4-14.8 13.1-3.3 14.1 19 0.4 14.8z m36.6 65.7c-5.5 10.5-10.9 21-16.9 31.3-6.5-12.6-12.6-25.4-18.5-38.3 8.6-0.9 17.2-1.7 25.7-2.6 3.3 3.2 6.6 6.4 9.7 9.6m-12 10.6c7.5-6.9-2.3-17.9-9.7-10.7-5.6 5.4 4.2 19.1 9.7 10.7z m92-12.7c8.5 13.2 18.9 26.7 21.2 42.5-6.6 16.1-15.3 31.2-23.5 46.5-1.5-0.9-4.4-2.7-5.9-3.7l-2.5-9.7c-2.4 3.2-4.8 6.4-7.2 9.7 1.9 2.9 5.5 8.8 7.4 11.7-15.3 1.7-30.7 3.1-46.1 4.5 7.2-16.6 15-32.8 22.6-49.2 4.1 7.5 12.6 14.3 6.8 24.1 3.1-3 6.1-6 9.1-9-15-21.4-3-46.9 9.3-66.2l8.8-1.2m14.6 40.9c-5.3-11.8-11.4-23.3-19.1-33.8-13.3 20.5-20.6 50.4 1.7 67.6 5.7-11.3 11.4-22.6 17.4-33.8m-36.5 50.1c-3.9-7.7-7.8-15.3-11.8-23-3.7 8.2-7.4 16.5-11 24.7 5.7-0.3 17.1-1.2 22.8-1.7z m357.8-43.8c1.6 2.6 4.6 7.8 6.1 10.5-2.3 5.9-13.7 7.2-15.9 0.7 0.1-7.1 3.3-10.8 9.8-11.2z m-73.8 20.6c-12.7 1.3-25.4 2.5-38.2 3.6 6.5-9.5 13.3-18.8 20.2-28.1 6.2 8 12.3 16.2 18 24.5m-14.5-9.6c-15.1-8.5-1.6 17.2 0 0zM688.4 661c-11.1 1.5-22.2 2.8-33.3 3.9V678c-10.1 1.2-20.5 1-29.4-4.6 9.7-1.4 19.4-2.3 29.2-3.2l-10.4-6.8c7.6-11 14.6-22.4 21.3-33.9 8.7 9.6 15.8 20.5 22.6 31.5m-16.5-13.6c-5-6.6-15.9 2-11.6 8.4 5.2 5.9 17.8-1.3 11.6-8.4z m0 0" fill="#ED70A3" p-id="72397"></path><path d="M634.7 667c-9.9 1.2-19.9 2.3-30 3.3 4.5-2.3 13.3-7 17.7-9.3-2.8-5.3-5.6-10.6-8.4-15.8-6.8 7.2-9.6 16.4-10.4 26.1-3.7 0.2-11 0.5-14.7 0.7 7.5-14.2 15.5-28 23.8-41.7 7.5 12.1 14.9 24.3 22 36.7z m-77.6-34.9c7.5 13.9 15.2 27.6 21.4 42.1-9.5 3.9-16.2-3.1-22.7-8l11.3 0.2c-3.5-6.6-6.9-13.2-10.4-19.8l-12 23.1 12-1.6c-0.8 2.8-2.5 8.4-3.3 11.2-5.2-0.7-15.7-2.1-21-2.8 8-14.9 15.2-30.3 24.7-44.4z m-124.4 3.6c5.3 11.2 10.8 22.2 16.8 33.1l-1.6-1.3c-1.1 6.7-2.4 13.5-3.8 20.1-4.9-1.6-14.6-4.8-19.4-6.4 5.2-0.1 15.5-0.2 20.7-0.3-3.8-9.5-7.7-18.8-11.9-28.1-6 10.3-11 21-15.4 32.1l-6.9-5c7.3-14.6 14.2-29.5 21.5-44.2z m415.4 16c-0.2 7.6-12.9 7.3-17.3 3.4 0.6-6.8 12.9-7 17.3-3.4z m101.6 10.7c-5.6 15.8-25.9 10.5-34.4 0.3 11.1-5.4 23.1-5.1 34.4-0.3z m-189.2-1c-2.9 8-16.8 7-23.4 3.7 3.5-6.6 16.9-6.8 23.4-3.7z m109.6 16.2c-12 11.1-33.1 11.1-42.1-3.6 13.7-7.1 30.3-7.6 42.1 3.6z m-165.7-10.1c3.7 6.7 2.3 11-4.1 12.8-3.9-6.8-2.5-11.1 4.1-12.8z m-18.5 18.7c-4.4-4.6-8.5-12.8-5-19 10.1-5.3 14.1 17.7 5 19z m98 4.5c-14.8 11.3-33.2 8.4-48.9 0.8 10-19.6 35-11.3 48.9-0.8m-19.3-2.6c-6.6-4.5-10.5-3.3-11.5 3.4 6.6 4.5 10.4 3.3 11.5-3.4z m-92.1-10.9c4.5 3.3 6.2 7.5 5 12.7-5.8 1.3-12.3-1.7-17.4-4.5-3.4-6.3 7.6-11.3 12.4-8.2z m-210.3 13.5c12.7-2.2 25.6-3.4 38.5-3.6-12.9 13.6-32.4 13.8-49.4 9.6 0.1-6.1 0.5-12.2 1.1-18.2 3.3 4 6.4 8.2 9.8 12.2z m118.9-13c-7.4 19.5-15.3 38.7-24.9 57.2-0.3-18.4-0.4-36.8 0.8-55.1 6-0.5 18.1-1.5 24.1-2.1m-12.8 11.1c-2.7 3-2.7 3 0 0z m-20.6-6.5c-0.3 16-0.2 31.9-0.2 47.9-11.8-14-20.1-30.2-29.3-45.9 9.8-1.1 19.7-1.8 29.5-2m-9.9 7.6c-6.9 0.6-7.9 4.2-2.7 10.7 6.9-0.8 7.7-4.3 2.7-10.7z m141.9 9.6c-15.9 11.5-38.3 15.4-54.7 2.5 13.5-18.8 37.5-9.7 54.7-2.5m-23.1-0.3c-4.3-3.5-17.3-4.7-17.7 2.5 4.3 3.5 17.6 4.9 17.7-2.5z m-143.4-7c4 6.2 7.9 12.4 11.8 18.6-5.1-1.1-15.3-3.4-20.5-4.5-3.6 2.2-7.2 4.5-10.9 6.7 12.9 1.3 25.5 4.3 38 7.8-20.4 17.1-59.5 27.5-75.7-0.3 11-6 22.5-13 35.6-9.2 0.7-2.9 1.9-8.6 2.5-11.5 6.5-2.4 12.9-5 19.2-7.6m-3.9 34.9c-10.5-12-30.2-11.3-43.2-3.9 12.4 10.4 28.9 6.8 43.2 3.9z m359.2-27.7c-1.6 6.7-21 6.9-22.6-0.2 6.4-4.3 16-3.7 22.6 0.2z m-404.2 5.8c2.6 9.4-16.9 11.6-18 1.5 1.3-8.2 13.4-4.8 18-1.5z m319.9 12.5c-11.4 0.9-22.8 0.7-34.2-0.4 10.4-6.7 24.9-10.2 34.2 0.4z m-95 5.4c-7.2-2.1-14.5-4.2-21.7-6.5 5.4-3.1 10.2-7.6 16.5-8.4 2.4 4.7 4.1 9.7 5.2 14.9z m-10.5 7.4c-10.4-2.3-27 5.8-32.7-6.4 11.6-3.5 23-0.1 32.7 6.4z m-142.2-1.6c5.4 11.9 6.1 25.1 11.1 37.1-23.9-3.9-48.1-0.9-72.1-2.1 8.3-5.9 16.2-14.9 27.2-14.2 13.2 2.1 26 6.3 39 9.4l-4.5-11.5c-9.1 0.8-17.8-1.8-26.3-4.5 8.3-5.2 16.9-9.7 25.6-14.2zM470 740.3c7.5-1.9 23 7.9 9 12-8.2 7.5-18.6-7.6-9-12z m0 0" fill="#ED70A3" p-id="72398"></path></svg>