<svg t="1711609802320" class="icon" viewBox="0 0 1024 1024" version="1.1" xmlns="http://www.w3.org/2000/svg" p-id="77915" width="256" height="256"><path d="M825.21127 253c-1.3 0-10.1-0.3-15.6-7-2.6-3.2-5.2-8.9-3.3-18.2 2.2-10.2 8.9-16.7 19-18.4 2.1-0.3 4.3-0.4 6.8-0.3 0-0.1 0-0.1-0.1-0.2-1.2-4.1-3.5-14.5 1.8-21 5.3-6.4 11-7.5 15.1-7.4 5.9 0.3 11.1 3.5 15 7 2.5-4.7 6.5-9.9 12.3-13 6.2-3.3 13.3-3.5 20.8-0.6 10.7 4.1 14.7 10.9 16.1 15.9 1.6 5.6 0.9 11.4-0.7 16.5 7.3-1.8 15.8-2.3 22.3 1.7 4.5 2.7 9.8 8.5 9.8 21.1 0 19.6-14.9 23.9-20.7 23.9h-98.6z m0.1-12.7h98.8c2.3-0.1 8-1.3 8-11.2 0-5.3-1.2-8.8-3.7-10.2-6-3.6-20 1.6-25.8 4.7l-8-9.4c2.5-3.4 8.6-13.6 6.5-20.8-1-3.3-3.7-5.8-8.5-7.6-4-1.5-7.4-1.5-10.3 0-5.9 3.1-9.2 12-10 15.1l-11.4 2.1c-2.1-3.1-8-9.5-12.5-9.7-0.6 0-2.4-0.1-4.8 2.8-0.4 0.6-0.9 3.4 0.2 7.9 1 4.2 2.7 7.1 3.9 8.4 2.5 1.1 4.3 2.3 5.1 3.6l-0.5 7.2-7.7 2c-1.2-0.4-2.3-0.9-3.3-1.6-4.3-1.4-12.2-3-17.4-0.5-1.7 0.8-4.2 2.5-5.3 7.5-0.5 2.4-0.8 5.7 0.7 7.5 1.8 2.1 5.8 2.2 6 2.2zM802.41127 543.9h-72.7l-3-0.8c-6.2-3.3-16.8-13.2-13-27 1.9-6.8 5.9-11.8 11.7-14.6 5.6-2.7 12-2.9 17.6-2.3-0.6-3.5-0.5-7.2 0.3-10.5 2.4-9.4 10.1-14.8 21.1-14.8 9-0.4 15.9 2.8 21 8.4 5.3 5.8 7.3 13.5 8 19.3 5.9-1.1 13.5-1.5 18.8 2.2 2.7 1.9 5.9 5.6 5.9 12.3 0 23.8-13 27.2-14.5 27.5l-1.2 0.3z m-70.8-12.7h69.8c0.8-0.6 4.3-3.8 4.3-15 0-1-0.2-1.7-0.5-1.9-2.2-1.6-10-0.5-15.5 1.5l-8.5-6.5c0.3-3.3-0.1-13.1-5-18.5-2.7-2.9-6.5-4.2-11.6-4.3-6.4 0-8.1 2.8-8.7 4.8-1.5 4.8 0.9 10.9 2.4 11.9l-5.6 11.3c-3.8-1.6-15-5-21.6-1.8-2.5 1.2-4.1 3.3-5 6.6-1.8 6 3.1 10.2 5.5 11.9zM143.91127 404H71.21127l-3-0.8c-6.2-3.3-16.8-13.2-13-27 1.9-6.8 5.9-11.8 11.7-14.6 5.6-2.7 12-2.9 17.6-2.3-0.6-3.5-0.5-7.2 0.3-10.5 2.4-9.4 10.1-14.8 21.1-14.8 8.6 0.5 15.8 2.8 21 8.4 5.3 5.8 7.3 13.5 8 19.3 5.9-1.1 13.5-1.5 18.8 2.2 2.7 1.9 5.9 5.6 5.9 12.3 0 23.8-13 27.2-14.5 27.5l-1.2 0.3z m-70.9-12.7h69.8c0.8-0.6 4.3-3.8 4.3-15 0-1-0.2-1.7-0.5-1.9-2.2-1.6-10-0.5-15.5 1.5l-8.5-6.5c0.3-3.3-0.1-13.1-5-18.5-2.7-2.9-6.4-4.3-11.5-4.3h-0.1c-6.5 0-8.1 2.8-8.7 4.8-1.5 4.8 0.9 10.9 2.4 11.9l-5.6 11.3c-3.8-1.6-15-5-21.6-1.8-2.5 1.2-4.1 3.3-5 6.6-1.7 6 3.1 10.2 5.5 11.9z" fill="#3EC69F" p-id="77916"></path><path d="M466.61127 729c-19.5 0-47.5-1.5-65.5-14.3l-1.7-1.2c-16.7-11.9-39.5-28.1-42.4-48.9-0.5-3.8-1-8.5-1.5-13.4-1.6-14.7-3.7-33.3-7-41.8-7.3-19.3-2.1-64.2 3.3-79.3 0.9-2.6 1.7-6.7 2.6-11.1l0.3-1.6c3.1-16.1 6.9-35.7 21-49.7 10.5-10.5 16.5-14.1 20.1-15.9 12.2-6.9 46-14.1 58.1-14.2 21.6 0 54.9 8 70.9 16.7 21 11.5 38.9 57 41.6 65.5 4.8 15 9 54 6.6 69.1l-0.4 2.2c-7 43.7-11.9 69.5-14.5 76.8-2 5.5-15.6 35.6-26.1 43.5-9 6.2-45.7 17.6-65.4 17.6z m-11.9-278.8c-11.2 0.1-42.8 6.9-52.7 12.5-5 2.5-10.7 7.1-17.5 13.9-11.3 11.3-14.7 28.8-17.4 42.8l-0.4 2c-0.9 4.9-1.8 9.5-3.1 13-5.2 14.7-8.9 55.9-3.4 70.6 3.8 10.1 5.9 28.8 7.6 43.9 0.6 5.9 1.1 10.5 1.6 14.2 2.2 15.4 23.2 30.4 37.2 40.3l1.7 1.2c16.9 11.9 48 11.9 58.2 11.9 18.3 0 52-11.1 57.7-15.2 6.4-4.8 18.7-29.1 21.7-37.6 1.3-3.7 4.9-18.2 13.9-74.5l0.4-2.2c2.1-13.1-2-50-6.1-63.3-4.1-12.9-21.1-50.3-35.6-58.2-13.9-7.8-45.5-15.3-63.8-15.3z m12 260.8c-17.1 0-41.4-1.1-55.2-10.9l-1.7-1.2c-16.9-12-33.4-24.8-35.1-36.9-0.5-3.4-1-8-1.5-12.8l-0.2-2.3c-1.7-15-3.8-33.6-7.8-44.1-5.2-13.7-1-54.6 3.4-67 1.4-4.1 2.5-9.4 3.6-15.3 2.6-13.4 5.8-30.1 16.1-40.4 9.5-9.4 14.2-12 15.8-12.8 9.4-5.5 40.1-12 49.9-12.1h0.4l1.3 0.1h0.1c17.4 0 47 7 60.5 14.5 11.6 6.4 28.2 39.8 33.1 55.1 3.9 12.2 7.9 48.8 6 60.9-2.9 18.1-11 67.1-14 75.7-3.2 8.7-15 31.4-20 35.2-4.8 3.3-36.9 14.3-54.7 14.3z m-13.1-243.1c-9.6 0.3-36.8 6.7-42.8 10.1-4 2.2-8.3 5.7-13.7 11.1-7.5 7.5-10.3 22.1-12.5 33.8-1.2 6.4-2.3 12.2-4.1 17.1-4.2 12.1-7 49-3.5 58.3 4.6 12 6.7 30.7 8.6 47.2l0.2 2.2c0.5 4.8 1 9.1 1.5 12.5 1 7.8 22.7 23.2 29.8 28.3l1.7 1.2c8 5.7 24.1 8.6 47.9 8.6 15.5 0 43.9-10.1 47.1-12 1.8-1.9 11.9-19.5 15.4-29.2 2-5.7 8.5-42.5 13.4-73.4 1.6-10-2.2-44.7-5.5-55-5.4-17.1-20.9-44.4-27.2-47.9-11.6-6.4-39.4-12.9-55.2-12.9h-1.1z" fill="#ED70A3" p-id="77917"></path><path d="M15.31127 838.9C7.51127 838.9 1.01127 833.1 0.11127 825.3c-0.5-4 0.7-8.1 3.3-11.3 2.4-3 6-5 10.1-5.6 36.4-4.1 190.5-28.1 201-32.4 5.4-2.9 15.1-5.7 25.3-8.7l2.8-0.8c8.2-2.4 18.4-5.4 22.1-7.5 2.8-1.6 3.2-2.1 4.9-4.2 2.9-3.6 6.3-7.9 14.4-13.4 0.4-0.2 0.6-0.6 1.5-4.8 1.2-5.7 4.8-22.9 25.8-22.9h3.4c8.8 0 12.2-2.6 19.8-8.2 0.4-0.3 0.7-0.5 1-0.7-4.3-3.7-6.8-8.5-8.8-12.5l-1.5-2.9c-1.1-2-1.8-4-2.3-5.7-4.1-1.2-7.3-3.3-9.6-6.3-0.3 0-0.6-0.1-1-0.1-19.4-2.1-31-5.1-36.4-14.3-0.8-1.5-1.5-3-1.9-4.5-3.8-2.4-8.8-6.4-11.1-13.2-1.5-4.5-5.3-19.1-6.5-28.5-1.2-1.1-2.7-2.5-3.8-3.4-6-5.2-12.9-11.5-18.3-19.8-1.6-2.5-2.9-4.2-3.8-5.4l-0.8-1.1c-5-6.4-5.4-10.2-5.3-18v-4.8c0-0.9 0-0.9-1.6-3-5.9-7.6-11.3-18.1-1.7-34 7.2-12 17-22.8 24.2-30.8 3.4-3.8 6.3-7.1 8.5-9.9 0.7-0.9 1-3.5 1.2-5.8 1.4-18.8 12.9-21.6 19.6-21.6 1-0.3 11.2-3.8 28.8-12.5 1-1.5 2.3-3.5 3.6-5.5l2.2-3.4c10.4-16.2 17.8-27.1 24.7-31.5 0.8-0.5 1.6-1 2.5-1.7 19.7-13.5 44.6-28.7 66.2-28.7 5.2 0 10.2 0.9 14.8 2.8 14.3 5.8 24.6 11.2 31.6 15.5 6-8.9 10.9-13.6 15.8-15.3 3.3-1.1 8.4-1.6 16.7-1.6 3.6 0 6.9 0.1 9.1 0.2 4.9 0.2 9.5 2.8 12.3 7.2l1.2 1.9 14-2.7c1.3-0.2 2-0.3 2.9-0.3 3.3 0 6.4 1 9 3 13.6 9.8 23.2 17.3 28.3 22 9.6 8.8 35.9 45.4 42.6 59.4 9.1 19.1 0.6 113.6-2.2 128.2-0.9 4.7-1.8 10.7-2.7 17-4 28-6.3 43.4-20 46.9-1.9 0.5-6.8 4.4-7.6 6.2-1.2 8-6.1 13.6-13.6 15.7-1 5-1.2 11.2-1.1 16.8 5.6 1 9.4 2.5 12.3 4.8 0-0.1 2.2 0.8 3.6 1.4 9.6 4.1 17.7 7.6 20.2 16.1 0.5 1 4.9 9.8 11.4 22.1 44.4 6.3 51.4 7.9 54.8 9 1.1 0.1 12.6 0.8 28.2 0.8 20.3 0 36.5-1.1 45.6-3.2 24.3-5.4 30.5-5.5 50.9-4.7l4.8 0.2c9 0.4 17.7 0.6 26.1 0.6 43.1 0 74-5.7 96.6-9.8 21.3-4 37.4-6.6 50.7-3.1 7.8 2.1 15.7 3 23.2 3.9 16.5 2 35.1 4.2 41.4 22 1.4 3.9 1.1 8-0.7 11.7-1.8 3.7-4.9 6.4-8.8 7.7-7.6 2.6-15.8-1.2-18.9-8.3-2.8-1.3-11.6-2.3-16.5-2.9l-1.9-0.2c-7.6-1-16.3-2-25.5-4.5-6.9-1.8-19.3 0.3-36.1 3.4-22.9 4.2-56.6 10.5-104 10.5-8.8 0-17.8-0.2-26.8-0.6-23-1.2-25.9-1.2-47.9 3.8-15.4 3.4-39.5 3.9-52.5 3.9-26.8 0-34-1.2-37.5-2.5-2.5-0.7-25.1-4.2-57.1-8.7-4.9-0.7-9.1-3.7-11.4-8-8.5-15.8-13-24.8-15-28.9-1.1-0.5-2.4-1.1-3.6-1.6l-1.7-0.8c-3.9-1.7-6.5-2.8-8.6-4.1-2-0.3-5.9-0.8-10.2-0.9-7.6-0.3-13.6-6-14.5-13.4-0.7-6.4-2.5-27.9 1.8-43 2.7-9.3 7.6-15.2 14.8-17.8 4.6-10.1 14.3-17.1 21.1-20.6 1.4-5.6 2.9-16.1 3.9-22.1l0.6-4c0.9-6 1.8-11.7 2.7-16.5 4.8-24.8 7.3-101.3 4.5-109.4-5.3-11.2-28.9-43.6-35.6-49.8-4.4-4.1-13.2-10.8-20.3-15.9l-17.8 3.5c-1.3 0.2-2.1 0.3-2.9 0.3-5.3 0-10.2-2.7-12.9-7.2l-2.3-3.7c-1.7 0-3.3 0-4.6 0.1-2.5 3.5-6.5 9.8-10 15.9-2.2 4-6.1 6.7-10.5 7.6-1 0.2-2.1 0.2-2.8 0.2-3.7 0-7.2-1.3-9.9-3.7l-3.9-3.2c-3.3-2.8-14.5-10-33.7-17.9-0.9-0.3-2.1-0.5-3.3-0.5-6.7 0-20.6 4-48.4 23-1.7 1.2-3 2-3.9 2.6-1.2 1.1-6.1 8.1-14.1 20.4l-1.3 2c-7.7 12-10.1 15.7-14.9 18.2-15.4 7.7-26.9 12.7-35 15.2-0.7 5.1-2.3 11.5-7.1 17.6-2.7 3.4-6.1 7.3-9.8 11.4-6.8 7.6-15.2 16.9-20.8 26.1 3.1 4 7.6 10.6 7.6 21.2v5.5c1.4 1.9 3 4 5 7.2 3.2 5 8.2 9.4 13 13.6 7.1 6.2 13.9 12.1 13.9 21.7 0 2.2 2.4 13.5 4.5 20.9 0.2 0.1 0.4 0.3 0.7 0.4 2.4 1.4 8.7 5.1 11.4 11.5 2.6 0.5 6.5 1.1 12.4 1.8 5.7 0.6 14.9 1.7 20.4 8.3 9.5 2.6 15 9.3 16.2 19.9l1.6 3.2c0.7 1.4 1.3 2.5 1.8 3.3 6.1 4.5 10.5 13.4 10.9 22.4 0.5 9.7-3.8 18.6-11.9 24.5l-2.2 1.6c-8.9 6.6-19 14.1-37.7 14.2-1.2 5.7-3.9 15.3-13.9 22.2-4.5 3.1-5.8 4.8-7.5 6.9-2.8 3.5-6 7.6-14 12-7.1 4-18.2 7.2-30 10.6-7.4 2.1-18 5.2-21.5 7.1-14.6 7.7-190.4 32.9-210.3 35.4-1.1 0.1-2.2 0.2-3 0.2z m0-12.6v6.3-6.3z m296.1-99.9c-9.9 0-11.9 5.8-13.4 12.8-1 4.8-1.9 9.4-6.8 12.7-6.5 4.4-9 7.6-11.2 10.3-2.6 3.3-4.3 5.2-8.9 7.8-4.9 2.9-15 5.8-24.8 8.7l-1.7 0.5c-10.6 3.1-19.6 5.8-24.4 8.3-13.1 5.6-174.3 30.1-205 33.5-1 0.1-1.5 0.6-1.8 0.9-0.5 0.6-0.7 1.2-0.6 1.9 0.1 1.1 0.9 2 1.8 2.3l1.5-0.2c25.1-2.9 194.9-28.1 206.7-34.1 4.3-2.3 12.8-4.9 23.5-7.9 11.5-3.3 21.9-6.3 27.7-9.6 5.8-3.2 7.9-5.8 10.1-8.6 2.6-3.3 4.7-5.7 10.4-9.7 6.6-4.5 8-11.1 9-16l0.5-2.2c0.2-0.9 0.4-1.6 0.5-2l1.4-4.4h6.2c1.4 0.1 2.1 0.1 2.8 0.1 14.8 0 22.5-5.7 30.7-11.8l2.3-1.7c4.5-3.3 6.9-8.2 6.6-13.7-0.2-5.9-3.3-11.3-6.1-13l-1.2-0.9c-1-1.1-1.9-2.5-3.5-5.6l-2.5-4.6c-0.8-2.2-1-3.7-1-4.4-0.5-3.7-1.5-7.6-8.5-8.9l-2.9-0.5-1.3-2.4c-1.6-2.7-6-3.8-12.5-4.5-8.1-1-14-2-17.7-3l-4.2-1.2-0.4-4.3c-0.3-3-4.5-5.5-6.1-6.4-2-1.2-3.2-2-3.8-2.4l-1.5-1.2-0.6-1.8c-2.1-6.8-5.7-22.3-5.7-26.9 0-3.6-3.4-6.8-9.5-12.2-5.4-4.7-11.1-9.9-15.2-16.2-2.2-3.4-3.8-5.5-5-7l-0.4-0.6c-0.3-0.4-0.7-0.9-1-1.6l-0.6-2.8v-7.7c0-7.2-3.2-11.3-5.5-14.3-1.5-1.8-3-3.7-3-6.4 0-2.3 1.1-4.3 2.7-7 6.2-10.3 15.1-20.2 22.2-28.1 3.6-4 6.8-7.6 9.4-10.8 4.1-5.2 4.5-10.8 4.9-15.3l0.4-4.7 4.6-1c4.8-1 15-4.5 36.5-15.3 1.5-0.8 3-2.8 10-13.8l1.3-2c10.7-16.4 15-22.3 17.9-24.1 0.9-0.6 2-1.3 3.5-2.3 24.8-17 43-25.2 55.6-25.2 2.7 0 5.4 0.5 7.9 1.4 19.4 7.9 32.2 15.7 37.2 19.9l4 3.3c0.6 0.5 1.1 0.7 1.7 0.7 1.2-0.1 1.9-0.6 2.2-1.3 4.4-7.8 10-16.6 12.9-19.9l1.6-1.9 2.5-0.3c1.9-0.2 5-0.3 8.7-0.3h6.9l6.1 9.7c0.5 0.8 1.3 1.3 2.2 1.3l23.6-4.6 2.2 1.6c2.8 2 16.9 12.1 23.7 18.5 7.7 7 32.4 40.9 38.5 53.8 5.4 11.2 0.5 96.4-3.5 117.1-0.9 4.6-1.7 10.1-2.6 16l-0.6 4c-1.7 11.3-3.4 21.9-5.1 26.8l-0.9 2.7-2.6 1.1c-5.5 2.3-15.3 9-18 17.4l-1.1 3.5-3.6 0.7c-3 0.6-6.3 2.2-8.5 9.9-3.8 13.3-1.8 34-1.4 38 0.2 1.4 1.2 2.3 2.5 2.4 5.2 0.2 11 0.8 13.6 1.5l2.2 1c1.3 0.9 3.7 2 7.6 3.7l1.7 0.8c2.1 0.9 4.6 2 6.2 2.9l1.9 1 0.9 1.9c2.2 4.6 7.4 15 15.6 30.3 0.4 0.8 1.1 1.3 2 1.4 19.9 2.8 54.9 7.8 59.2 9.2 2.5 0.9 10.2 1.8 33.6 1.8 10 0 35-0.3 49.7-3.6 22.9-5.2 26.6-5.3 51-4.1 8.9 0.4 17.8 0.6 26.4 0.6 46.2 0 79.2-6.1 101-10.2 19.6-3.6 32.7-5.8 42.2-3.3 8.3 2.2 16.5 3.2 23.8 4.1l1.9 0.2c13.4 1.6 23.9 2.8 26.5 10.2 0.4 1.1 1.3 1.8 2.5 1.8 1.7-0.5 2.2-1 2.4-1.5 0.2-0.4 0.4-1.1 0.1-2-3.5-9.9-14-11.6-30.9-13.6-7.8-0.9-16.3-1.9-24.9-4.2-10.9-2.9-25.8-0.3-44.5 3.2-23.8 4.4-55.3 10.2-99.6 10.2-8.7 0-17.5-0.2-26.5-0.6l-5-0.2c-18.7-0.8-24.3-0.8-47.6 4.4-12.8 2.9-33.3 3.5-48.3 3.5-13.9 0-28-0.5-31.5-1.2-4.7-1.5-21.9-4.2-56.5-9.1l-3.2-0.4-1.5-2.8c-6-11.3-12.5-23.9-13.7-26.7-1-3.3-5.6-5.4-13-8.6-1.6-0.6-4.7-2-6-2.7-2.9-2.2-7.9-3-11.9-3.4l-5.3-0.5-0.3-5.4c-0.3-4.2-0.9-18.5 1.8-28.3 0.2-1 0.6-2 1.1-2.9l1.6-3.1 3.5-0.3c4.2-0.3 6-2.1 6.7-6.3 1.2-7.2 11.8-14.8 17-16 5-1.3 7-11.5 10.5-36.4 0.9-6.5 1.9-12.7 2.8-17.6 3.4-17.6 9.7-106.7 3.2-120.4-6-12.4-31.3-47.7-39.8-55.5-4.7-4.3-14.2-11.7-26.6-20.6-1.1-0.8-1.6-1-2.2-1l-23 4.4-5.8-9.2c-0.5-0.8-1.3-1.3-2.1-1.3-2.1-0.1-5.2-0.2-8.6-0.2-8.9 0-11.8 0.7-12.6 1-1.2 0.4-4.9 2.7-12.6 15.4l-3.5 5.7-5.5-3.8c-6.1-4.2-17-10.7-34.6-17.8-18.6-7.6-49.1 10.8-68.6 24.2-1.6 1.2-2.8 2-3.7 2.5-4.8 3.1-13.6 16.6-20.6 27.5l-2.1 3.3c-1.9 2.9-3.8 5.9-5 7.4l-0.9 1.2-1.3 0.7c-13.8 6.8-30.8 14.3-35.6 14.6-3.5 0-6.6 0.8-7.3 10-0.4 4.1-0.8 8.7-3.9 12.6-2.3 2.9-5.4 6.4-9 10.5-6.8 7.6-16.2 17.9-22.8 28.9-5.9 9.8-3.5 14.2 0.6 19.4 2.3 3 4.5 5.8 4.5 11v4.9c-0.1 6.3 0 6.8 2.8 10.3l0.9 1.2c1 1.4 2.4 3.2 4.2 6 4.5 6.9 10.4 12.3 16.1 17.2 1.9 1.7 4.8 4.3 6.1 5.7l1.5 1.6 0.2 2.2c0.5 7 4.4 22.7 6.1 27.9 1.2 3.6 4.6 5.8 7.9 7.7l3 1.7 0.2 3.4c0 0.8 0.3 1.6 0.8 2.5 1.9 3.2 7.2 5.8 26.8 8 2.2 0.2 3.8 0.5 4.8 0.7l3 0.7 1.3 2.7c1.1 2.3 4 3 6.3 3.3l4.7 0.6 0.7 4.7c0.3 1.8 0.5 3.7 1.6 5.6 0.3 0.5 0.7 1.3 1.1 2l0.6 1.2c2 4 3.9 7.5 6.7 9.5l1.3 1.2c1.5 1.7 3 5.3 2.8 9-0.2 3.3-1.7 5.8-4.4 7.9-0.5 0.4-1.3 1-2.1 1.6-8.2 6.1-14.5 10.8-27.5 10.8h-3.8z m683.4 42.3v0z" fill="#ED70A3" p-id="77918"></path><path d="M476.01127 851.7c-1.2 0-2.4-0.2-3.8-0.5L318.91127 813c-4.1-1-7.7-3.8-9.8-7.5-2.1-3.9-2.4-8.4-0.9-12.5 5.3-14.9 25.3-64.2 56.5-70.8 1.7-0.4 3.5-0.5 5.7-0.5 22.4 0 47.1 26.8 82.3 67.6 11.8 13.7 25.1 29.3 32.7 35.2 5.7 4.5 7.5 12.4 4.4 18.8-2.8 5.2-8.1 8.4-13.8 8.4zM370.41127 734.2c-1.2 0-2.1 0.1-3 0.3-26 5.6-45.2 57-47.3 62.9-0.3 0.8-0.2 1.5 0.1 2.1 0.3 0.6 1 1.1 1.7 1.3l154 38.3c1 0 2-0.7 2.6-1.7 0.4-0.8 0-2.3-1-3-8.6-6.6-21.8-22-34.5-36.9-30.7-35.9-55.6-63.3-72.6-63.3z m94.8 96.8l-139.3-34.6 2.9-6.8c4.4-10.3 19.7-43.5 37.7-49.3l0.7-0.6 3.1-0.1c13.4 0 34.5 21.6 68.7 61.4l26.2 30zM343.51127 787.7l85.9 21.4c-11.9-13.9-47.9-55.7-58.7-56.9-7 1.7-18.1 16.4-27.2 35.5z" fill="#ED70A3" p-id="77919"></path><path d="M476.71127 852c-4.2 0-8.2-1.7-11.1-4.8-4.3-4.7-5.3-11.3-2.6-17l17.9-38c0.5-1 1.2-2.2 2.1-3.3 43.5-52.6 57.1-52.6 63.7-52.6 6 0 9.8 2.6 11.5 4.1l45 40c3.9 3.4 5.8 8.8 5 14-0.9 5.2-4.5 9.6-9.5 11.6l-116.4 45c-2 0.7-3.8 1-5.6 1z m69.9-103.1c-11.8 0-35.8 26.1-54 48.1l-18.3 38.6c-0.5 1.1-0.4 2.1 0.4 3 0.7 0.7 1.1 1.3 2.9 0.6l116.3-44.9c0.8-0.3 1.4-1.1 1.6-1.9 0.1-0.9-0.2-1.9-0.8-2.4l-45.1-40c-0.2-0.4-1.1-1.1-3-1.1z m-64.8 83l15.5-32.3c26.6-32 39.5-41.3 44.9-43.9l3.8-1.9 41.9 37.1-106.1 41z m25.8-24.8l-0.8 1.6 57.2-22.1-19.6-17.4c-5.5 3.9-16.7 13.7-36.8 37.9z" fill="#ED70A3" p-id="77920"></path></svg>