<svg t="1711609691063" class="icon" viewBox="0 0 1047 1024" version="1.1" xmlns="http://www.w3.org/2000/svg" p-id="74991" data-spm-anchor-id="a313x.search_index.0.i60.35b13a81O6RsmG" width="256" height="256"><path d="M507.237209 685.84186c83.348837-28.576744 97.637209-16.669767 104.781396-26.195348 2.381395-4.762791 2.381395-11.906977 2.381395-19.051163l-109.544186-109.544186c-11.906977-11.906977-30.95814-21.432558-50.009302-21.432558s-35.72093 7.144186-50.009303 21.432558L102.4 833.488372c57.153488 78.586047 135.739535 138.12093 226.232558 173.841861 14.288372-35.72093 38.102326-83.348837 66.67907-107.162791-2.381395-4.762791-2.381395-9.525581 0-11.906977 2.381395-4.762791 7.144186-11.906977 7.144186-11.906977s-40.483721-14.288372-40.483721-45.246511c0-30.95814 59.534884-116.688372 145.265116-145.265117zM211.944186 383.404651c-23.813953-23.813953-64.297674-23.813953-88.111628 0L0 507.237209v16.669768c0 104.781395 30.95814 209.562791 92.874419 295.293023l276.24186-276.24186-157.172093-159.553489z" fill="#d4237a" p-id="74992" data-spm-anchor-id="a313x.search_index.0.i62.35b13a81O6RsmG" class=""></path><path d="M523.906977 0C250.046512 0 23.813953 207.181395 2.381395 478.660465l107.162791-107.162791c30.95814-30.95814 83.348837-30.95814 114.306977 0l157.172093 157.172093 9.525581-9.525581c33.339535-33.339535 90.493023-33.339535 123.832558 0l97.63721 97.637209c0-19.051163 2.381395-38.102326 9.525581-52.390697 14.288372-28.576744 42.865116-54.772093 52.390698-73.823256 9.525581-21.432558 38.102326-73.823256 59.534883-76.204651-4.762791 0-35.72093-11.906977-38.102325-19.051163s0-16.669767-2.381395-21.432558c-2.381395-4.762791-11.906977-7.144186-14.288373-9.525582-4.762791-4.762791 0-40.483721-2.381395-45.246511-4.762791-4.762791-11.906977-9.525581-19.051163-11.906977-7.144186-4.762791-11.906977-33.339535-9.525581-45.246512 2.381395-11.906977-4.762791-9.525581-2.381395-16.669767 2.381395-11.906977 69.060465-47.627907 83.348837-47.627907 14.288372 0 71.44186 19.051163 83.348837 26.195349 11.906977 7.144186 30.95814 38.102326 40.483721 64.297674 9.525581 23.813953 19.051163 47.627907 33.339535 69.060465 4.762791 7.144186 9.525581 54.772093 7.144186 61.916279-2.381395 4.762791-16.669767 9.525581-26.195349 11.906977 14.288372 2.381395 26.195349 4.762791 28.576744 4.762791 11.906977 2.381395 35.72093 19.051163 47.627907 26.195349 9.525581 7.144186 30.95814 61.916279 33.339535 73.823255 2.381395 11.906977 2.381395 40.483721 7.144186 52.390698s16.669767 11.906977 19.051163 35.72093c2.381395 16.669767 2.381395 61.916279 7.144186 88.111628C1071.627907 550.102326 1050.195349 369.116279 952.55814 226.232558S695.367442 0 523.906977 0z m-204.8 264.334884c-35.72093 0-64.297674-28.576744-64.297675-64.297675s28.576744-64.297674 64.297675-64.297674S381.023256 166.697674 381.023256 202.418605c0 16.669767-7.144186 33.339535-19.051163 45.246511-9.525581 11.906977-26.195349 16.669767-42.865116 16.669768zM904.930233 821.581395zM621.544186 897.786047h16.669767c4.762791 0 11.906977 0 16.669768 2.381395 2.381395 0 7.144186 2.381395 9.525581 2.381395h9.525582c2.381395 0 2.381395 0 4.76279-2.381395s2.381395-2.381395 4.762791-2.381395 0 0 0-2.381396v-2.381395-4.762791c-2.381395-2.381395-2.381395-4.762791-4.762791-4.762791l-7.144186-7.144186-14.288372-7.144186c-2.381395 0-4.762791-2.381395-7.144186-4.76279-2.381395-2.381395-4.762791-2.381395-4.76279-4.762791s0-2.381395-2.381396-2.381395h-4.762791v-2.381396-2.381395l-2.381395 2.381395-2.381395 2.381396h2.381395c2.381395 0 0 0-2.381395 2.381395s-4.762791 2.381395-4.762791 2.381395 2.381395 0 2.381395-2.381395 0 0-2.381395 0-2.381395 0-4.762791 2.381395c0 0-2.381395 0-2.381395 2.381396-2.381395 0-4.762791 2.381395-7.144186 2.381395H600.111628c-2.381395 0-4.762791 2.381395-7.144186 0h-16.669768l2.381396-16.669767c0-7.144186 2.381395-14.288372 0-21.432559v-9.525581-4.762791s2.381395-2.381395 4.76279-2.381395c2.381395-2.381395 7.144186-2.381395 11.906977-2.381395h7.144186l-7.144186 2.381395-2.381395 2.381395h28.576744c2.381395 0 7.144186 0 9.525581-2.381395h9.525582c4.762791 0 7.144186 0 9.525581-2.381395 0-2.381395 0-4.762791-2.381395-9.525582l-7.144186-7.144186c-2.381395 0-2.381395-2.381395-4.762791-2.381395l-4.762791-4.762791c0-2.381395-2.381395-2.381395-4.76279-2.381395h-2.381396s-2.381395 2.381395-2.381395 0c0 0-2.381395 0 0-2.381396-4.762791 0-9.525581 0-14.288372 2.381396-2.381395 0-9.525581 2.381395-16.669767 4.76279-4.762791 2.381395-7.144186 2.381395-11.906977 4.762791-2.381395 0-2.381395 0-2.381396-2.381395v-9.525582-9.525581-16.669767-11.906977c0-2.381395-2.381395-4.762791-2.381395-7.144186 0-2.381395-2.381395-4.762791-4.762791-4.762791s-2.381395-2.381395-2.381395-4.762791v-2.381395l-4.762791-2.381395-2.381395-2.381396-2.381395-2.381395h-2.381396V714.418605s0 2.381395-2.381395 2.381395H547.72093l-2.381395-2.381395h-4.762791l-2.381395 2.381395V723.944186c0 4.762791 0 9.525581 2.381395 11.906977l2.381396 2.381395v4.762791l2.381395 4.762791v59.534883c0 2.381395-2.381395 4.762791-2.381395 7.144186v7.144186c0 11.906977 2.381395 26.195349 4.76279 38.102326 0 2.381395 0 2.381395 2.381396 4.762791-4.762791 2.381395-7.144186 2.381395-9.525582 2.381395h-9.525581c-4.762791 0-9.525581 2.381395-14.288372 2.381395h-19.051163-16.669768v-2.381395c2.381395 0 2.381395-2.381395 4.762791-2.381395h-21.432558s0-2.381395 2.381395-2.381396 2.381395 0 2.381396-2.381395c0 0 0-2.381395 2.381395-2.381395s4.762791-2.381395 7.144186-2.381396c2.381395 0 2.381395-2.381395 4.762791-4.76279 0-2.381395 2.381395-2.381395 4.762791-2.381396s4.762791-2.381395 4.76279-2.381395 2.381395-2.381395 4.762791-2.381396h0c-2.381395 0-4.762791 2.381395-4.762791 2.381396h-2.381395c-2.381395 0-2.381395 0-4.762791 2.381395s-14.288372 4.762791-38.102325 9.525582c-2.381395 0-2.381395 0-4.762791 2.381395 0 0-2.381395 0-2.381395 2.381395v2.381396s-2.381395 0-2.381396 4.76279c0 2.381395 0 7.144186-2.381395 9.525582-2.381395 4.762791-2.381395 9.525581 0 14.288372 4.762791 4.762791 9.525581 7.144186 14.288372 7.144186 2.381395 0 7.144186 0 9.525581 2.381395h4.762791v2.381396h4.762791c2.381395 0 4.762791 0 7.144186-2.381396 2.381395 0 2.381395 0 4.76279-2.381395h9.525582c2.381395 0 4.762791-2.381395 7.144186 0h109.544186c9.525581-2.381395 11.906977-2.381395 14.288372-2.381395z m-161.934884-33.339535c0 2.381395-2.381395 2.381395 0 0-2.381395 2.381395-4.762791 2.381395-4.76279 2.381395v-2.381395h4.76279zM461.990698 947.795349c4.762791 0 7.144186 0 11.906976 2.381395H481.04186c2.381395 0 4.762791 2.381395 4.762791 4.762791 2.381395 2.381395 2.381395 4.762791 2.381396 7.144186 0 2.381395 0 2.381395-2.381396 4.762791l-2.381395 2.381395h-2.381396l-4.76279-4.762791c-2.381395-2.381395-4.762791-4.762791-9.525582-4.76279h-4.76279l-2.381396 2.381395c0 2.381395 2.381395 4.762791 7.144186 4.762791 4.762791 0 7.144186 2.381395 11.906977 4.76279 7.144186 2.381395 9.525581 7.144186 9.525582 14.288372 0 4.762791-2.381395 11.906977-7.144187 14.288373-4.762791 4.762791-11.906977 4.762791-19.051162 4.76279-4.762791 0-7.144186 0-11.906977-2.381395-2.381395 0-4.762791-2.381395-7.144186-2.381395-2.381395-2.381395-2.381395-2.381395-2.381395-4.762791s-2.381395-4.762791-2.381396-9.525582v-2.381395l2.381396-2.381395s2.381395 0 2.381395 2.381395c2.381395 2.381395 2.381395 4.762791 4.762791 4.762791l4.76279 4.76279c2.381395 0 4.762791 2.381395 7.144186 2.381396h4.762791l2.381395-2.381396s0-2.381395-2.381395-2.381395-2.381395-2.381395-4.762791-2.381395-7.144186-2.381395-9.525581-2.381396c-2.381395 0-4.762791-2.381395-4.762791-4.76279-4.762791-2.381395-7.144186-7.144186-7.144186-11.906977 0-2.381395 0-4.762791 2.381396-7.144186 0-2.381395 2.381395-4.762791 4.76279-4.762791 4.762791-9.525581 11.906977-9.525581 16.669768-9.525581zM509.618605 947.795349c9.525581 0 11.906977 2.381395 11.906976 4.762791v2.381395l-2.381395 2.381395-2.381395 2.381396v9.525581h11.906976v-2.381395-7.144186c0-2.381395 0-2.381395-2.381395-2.381396 0 0-2.381395 0-2.381395-2.381395V952.55814s0-2.381395 2.381395-2.381396l2.381395-2.381395h9.525582c4.762791 0 7.144186 0 11.906977 2.381395 2.381395 0 2.381395 2.381395 2.381395 4.762791s0 2.381395-2.381395 4.762791c0 0-2.381395 0-2.381396 2.381395v35.72093s2.381395 0 2.381396 2.381396l2.381395 2.381395c0 2.381395-2.381395 4.762791-4.762791 4.762791-4.762791 0-7.144186 2.381395-11.906977 2.381395s-7.144186 0-9.525581-2.381395c-2.381395 0-2.381395-2.381395-2.381395-4.762791s0-2.381395 2.381395-4.762791l2.381395-2.381395v-2.381396-9.525581-2.381395H514.381395V988.27907c0 2.381395 0 4.762791 2.381396 7.144186l2.381395 2.381395 2.381395 2.381396c0 2.381395-2.381395 2.381395-4.76279 4.76279-4.762791 0-7.144186 2.381395-11.906977 2.381396s-7.144186 0-11.906977-2.381396c0 0-2.381395 0-2.381395-2.381395V1000.186047v-2.381396l2.381395-2.381395s2.381395 0 2.381396-2.381396v-2.381395-11.906977-2.381395-11.906977-4.76279l-2.381396-2.381396-2.381395-2.381395c0-2.381395 2.381395-4.762791 7.144186-4.762791 4.762791-2.381395 9.525581-2.381395 11.906977-2.381395zM612.018605 976.372093l7.144186 16.669767s0 2.381395 2.381395 2.381396h2.381395c2.381395 0 2.381395 2.381395 2.381396 2.381395 0 2.381395-2.381395 2.381395-4.762791 4.762791-4.762791 0-7.144186 2.381395-11.906977 2.381395H595.348837s-2.381395 0-2.381395-2.381395c0 0-2.381395-2.381395 0-2.381395v-2.381396s2.381395 0 2.381395-2.381395c2.381395 0 2.381395 0 2.381396-2.381396s0-2.381395-2.381396-2.381395h-16.669767v4.762791h2.381395c2.381395 0 2.381395 2.381395 2.381395 2.381395 0 2.381395-4.762791 4.762791-11.906976 4.762791h-9.525582c-2.381395 0-2.381395-2.381395-2.381395-4.762791v-2.381395s2.381395 0 2.381395-2.381396c2.381395 0 2.381395-2.381395 4.762791-2.381395 2.381395-2.381395 2.381395-4.762791 4.762791-7.144186l4.76279-11.906977c2.381395-2.381395 2.381395-7.144186 4.762791-9.525581v-7.144186-4.762791s0-2.381395 2.381395-2.381395c2.381395-2.381395 4.762791-2.381395 7.144187-2.381396 2.381395 0 4.762791 2.381395 7.144186 2.381396l14.288372 28.576744z m-28.576745 4.762791h9.525582c0-2.381395-2.381395-4.762791-2.381395-7.144186l-2.381396-2.381396h-2.381395s-2.381395 0-2.381396 2.381396v2.381395c-2.381395 0-2.381395 2.381395 0 4.762791-2.381395 0-2.381395 0 0 0zM650.12093 950.176744l19.051163 16.669768c0 2.381395 2.381395 2.381395 4.762791 2.381395s2.381395-2.381395 2.381395-4.762791v-7.144186c0-2.381395-2.381395-2.381395-2.381395-2.381395s-2.381395 0-2.381396-2.381395v-2.381396c0-2.381395 2.381395-4.762791 4.762791-4.762791h16.669768c2.381395 0 4.762791 2.381395 4.76279 4.762791s-2.381395 2.381395-2.381395 4.762791h-2.381395v2.381395c0 2.381395-2.381395 7.144186 0 9.525582V995.423256c0 2.381395-2.381395 4.762791-4.762791 4.762791h-2.381396l-2.381395-2.381396-23.813953-21.432558c0-2.381395-2.381395-2.381395-4.762791-2.381395s-2.381395 2.381395-2.381395 7.144186v7.144186c0 2.381395 2.381395 2.381395 2.381395 2.381395 2.381395 0 2.381395 2.381395 2.381395 2.381395 0 4.762791-4.762791 4.762791-11.906976 4.762791-2.381395 0-4.762791 0-9.525582-2.381395-2.381395 0-2.381395-2.381395-2.381395-4.762791v-2.381395l2.381395-2.381396c2.381395 0 2.381395-2.381395 2.381395-4.76279v-14.288372c0-4.762791 0-9.525581-2.381395-14.288372v-2.381396l-2.381395-2.381395s-2.381395 0-2.381396-2.381396v-2.381395c0-2.381395 2.381395-4.762791 7.144186-4.762791h11.906977c-2.381395 9.525581-2.381395 11.906977 0 11.906977zM726.325581 947.795349c2.381395 0 7.144186 0 9.525582 2.381395H742.995349c2.381395 0 2.381395 0 4.762791 2.381396s2.381395 7.144186 2.381395 9.525581c0 2.381395 0 4.762791-2.381395 4.762791 0 2.381395-2.381395 2.381395-4.762791 2.381395s-2.381395 0-4.762791-2.381395c-2.381395 0-2.381395-2.381395-2.381395-4.762791-2.381395-2.381395-7.144186-4.762791-9.525582-4.762791-2.381395 0-7.144186 2.381395-9.525581 4.762791-2.381395 2.381395-2.381395 7.144186-2.381395 9.525581 0 4.762791 2.381395 11.906977 4.76279 16.669768l4.762791 4.76279c2.381395 0 2.381395 2.381395 4.762791 2.381396s2.381395 0 2.381395-2.381396c0 0 2.381395-2.381395 2.381395-4.76279v-2.381396h-2.381395-2.381395s-2.381395-2.381395 0-2.381395c0-2.381395 2.381395-4.762791 4.76279-4.762791 4.762791 0 7.144186-2.381395 11.906977-2.381395s7.144186 0 11.906977 2.381395c2.381395 0 4.762791 2.381395 4.762791 4.762791v2.381395l-2.381396 2.381396h-2.381395v2.381395c0 4.762791-2.381395 7.144186-7.144186 11.906977-2.381395 2.381395-4.762791 4.762791-9.525582 4.762791-2.381395 0-7.144186 2.381395-9.525581 2.381395-4.762791 0-11.906977-2.381395-16.669767-4.762791-9.525581-4.762791-14.288372-14.288372-14.288372-26.195349 0-4.762791 2.381395-9.525581 4.76279-14.288372 2.381395-4.762791 7.144186-9.525581 11.906977-11.906976 0-4.762791 4.762791-4.762791 9.525581-4.762791zM788.24186 981.134884c-2.381395 0-2.381395 0 0 0-2.381395 2.381395-2.381395 2.381395-2.381395 4.76279v9.525582h2.381395c2.381395 0 2.381395 2.381395 2.381396 2.381395 0 2.381395 0 2.381395-2.381396 4.762791-4.762791 0-7.144186 2.381395-11.906976 0-9.525581 0-14.288372-2.381395-14.288372-4.762791v-2.381395l2.381395-2.381396 2.381395-2.381395v-4.762791-21.432558-7.144186c0-2.381395-2.381395-2.381395-2.381395-2.381395s-2.381395 0-2.381395-2.381395v-2.381396-2.381395l2.381395-2.381396h28.576744c4.762791 0 9.525581 2.381395 14.288372 4.762791 2.381395 2.381395 4.762791 7.144186 4.762791 9.525582 0 2.381395 0 4.762791-2.381395 7.144186 0 2.381395-2.381395 4.762791-4.762791 4.76279 0 0-2.381395 0-2.381395 2.381396 0 0 0 2.381395 2.381395 2.381395s4.762791 2.381395 7.144186 4.762791c2.381395 2.381395 2.381395 7.144186 2.381395 9.525581v2.381395l2.381396 2.381396h2.381395v4.762791l-2.381395 2.381395c-2.381395 0-7.144186 2.381395-9.525582 2.381395-4.762791 0-9.525581 0-11.906976-4.76279 0-2.381395-2.381395-2.381395-2.381396-4.762791s-2.381395-4.762791-2.381395-9.525582c0-2.381395 0-4.762791-2.381396-4.76279 2.381395 0 2.381395 0 0 0z m-2.381395-21.432558v11.906976h2.381395c2.381395 0 4.762791 0 4.762791-2.381395 2.381395-2.381395 2.381395-4.762791 2.381396-4.762791 0-4.762791-2.381395-7.144186-4.762791-7.144186h-2.381396c-2.381395 0-2.381395 2.381395-2.381395 2.381396zM878.734884 976.372093l7.144186 16.669767s0 2.381395 2.381395 2.381396h2.381395c2.381395 0 2.381395 2.381395 2.381396 2.381395 0 2.381395-2.381395 2.381395-4.762791 4.762791-4.762791 0-7.144186 2.381395-11.906977 2.381395h-14.288372s-2.381395 0-2.381395-2.381395c0 0-2.381395-2.381395 0-2.381395v-2.381396s2.381395 0 2.381395-2.381395c2.381395 0 2.381395 0 2.381396-2.381396s0-2.381395-2.381396-2.381395h-16.669767v4.762791h2.381395c2.381395 0 2.381395 2.381395 2.381396 2.381395 0 2.381395-4.762791 4.762791-11.906977 4.762791h-9.525582c-2.381395 0-2.381395-2.381395-2.381395-4.762791v-2.381395s2.381395 0 2.381395-2.381396c2.381395 0 2.381395-2.381395 4.762791-2.381395 2.381395-2.381395 2.381395-4.762791 4.762791-7.144186l4.76279-11.906977c2.381395-2.381395 2.381395-7.144186 4.762791-9.525581v-7.144186-4.762791s0-2.381395 2.381396-2.381395c2.381395-2.381395 4.762791-2.381395 7.144186-2.381396 2.381395 0 4.762791 2.381395 7.144186 2.381396l14.288372 28.576744z m-28.576744 4.762791h9.525581c0-2.381395-2.381395-4.762791-2.381395-7.144186l-2.381396-2.381396h-2.381395s-2.381395 0-2.381395 2.381396v2.381395s-2.381395 2.381395 0 4.762791c-2.381395 0-2.381395 0 0 0zM921.6 947.795349c7.144186 0 11.906977 2.381395 19.051163 7.144186 4.762791 2.381395 7.144186 7.144186 9.525581 9.525581 2.381395 2.381395 2.381395 7.144186 2.381396 11.906977 0 7.144186-2.381395 11.906977-7.144187 16.669767-4.762791 4.762791-9.525581 7.144186-14.288372 9.525582-2.381395 0-7.144186 2.381395-9.525581 2.381395-4.762791 0-9.525581 0-14.288372-2.381395-4.762791-2.381395-9.525581-7.144186-11.906977-9.525582-2.381395-4.762791-4.762791-9.525581-4.762791-14.288372 0-7.144186 2.381395-11.906977 4.762791-16.669767 2.381395-4.762791 7.144186-7.144186 14.288372-9.525581 4.762791-4.762791 9.525581-4.762791 11.906977-4.762791z m-2.381395 11.906977c-2.381395 0-4.762791 0-4.762791 2.381395s-2.381395 2.381395-2.381395 4.762791c0 4.762791 0 7.144186 2.381395 9.525581 0 4.762791 2.381395 7.144186 4.762791 9.525581 0 2.381395 2.381395 2.381395 2.381395 2.381396h4.762791c2.381395 0 4.762791 0 4.76279-2.381396 2.381395-2.381395 2.381395-4.762791 2.381396-7.144186 0-4.762791 0-7.144186-2.381396-9.525581 0-2.381395-2.381395-7.144186-4.76279-9.525581 0-2.381395-2.381395-2.381395-4.762791-4.762791 0 4.762791-2.381395 4.762791-2.381395 4.762791zM731.088372 712.037209h11.906977l4.762791 2.381396s2.381395 0 2.381395 2.381395c0 0 2.381395 0 2.381395 2.381395l2.381396 2.381396s0 2.381395 2.381395 2.381395V731.088372c0 2.381395 0 2.381395-2.381395 2.381395v2.381396l2.381395-2.381396 9.525581-4.76279 9.525582-4.762791c2.381395 0 2.381395-2.381395 4.76279-2.381395l2.381396-2.381396 2.381395-2.381395 2.381395-2.381395h2.381396s0-2.381395 2.381395-2.381396h9.525582c2.381395 0 2.381395 2.381395 4.76279 2.381396s2.381395 2.381395 4.762791 2.381395l2.381395 2.381395 2.381396 2.381396v2.381395l2.381395 2.381395 2.381395 2.381396v9.525581c0 2.381395-2.381395 2.381395-4.76279 2.381395 0 0-2.381395 2.381395-4.762791 2.381396l-2.381395 2.381395-2.381396 2.381396s0 2.381395-2.381395 2.381395-2.381395 2.381395-4.762791 4.762791l-4.76279 4.76279s-2.381395 0-2.381396 2.381396l-2.381395 2.381395c-2.381395 0-2.381395 2.381395-4.762791 2.381395l-2.381395 2.381396h-2.381396-2.381395l-2.381395 2.381395h-7.144186l2.381395 2.381395c2.381395 2.381395 2.381395 4.762791 2.381395 7.144186v69.060466l11.906977-11.906977 2.381395-2.381396V833.488372c2.381395 0 2.381395-2.381395 2.381396-4.762791l4.762791-4.76279v4.76279c0 2.381395 0 4.762791-2.381396 7.144186v4.762791c0 2.381395 0 2.381395-2.381395 4.762791 0 2.381395-2.381395 2.381395-2.381396 4.762791s-2.381395 4.762791-2.381395 7.144186c0 2.381395-2.381395 4.762791-2.381395 7.144186 0 2.381395 0 4.762791-2.381396 4.76279 0 2.381395-2.381395 2.381395-2.381395 4.762791 0 0 0 2.381395-2.381395 2.381395-2.381395 2.381395-2.381395 2.381395-2.381396 4.762791v2.381395l-2.381395 2.381396-2.381395 2.381395s0 2.381395-2.381396 2.381395c0 0 0 2.381395-2.381395 2.381396 0 2.381395 0 2.381395-2.381395 2.381395h-2.381396-9.525581l-2.381395-2.381395s-2.381395-2.381395-4.762791-2.381396-2.381395 0-4.762791-2.381395h-2.381395v-2.381395s0-2.381395-2.381396-2.381396c0 0-2.381395 0-2.381395-2.381395 0 0-2.381395 0-2.381395-2.381395v-2.381396h2.381395c2.381395 0 2.381395-2.381395 4.762791-2.381395 2.381395-2.381395 4.762791-7.144186 7.144186-9.525581 2.381395-4.762791 2.381395-11.906977 4.762791-19.051163 0-4.762791 0-14.288372 2.381395-23.813954s0-21.432558 0-28.576744v-14.288372-4.762791s0-2.381395-2.381395-2.381395l-2.381396-2.381395c0-2.381395-2.381395-2.381395-2.381395-4.762791V762.046512v-2.381396s2.381395 0 2.381395 2.381396c2.381395 0 2.381395 0 4.762791 2.381395h11.906977s0-2.381395 2.381395-2.381395 2.381395-2.381395 2.381395-2.381396l7.144186-14.288372c2.381395-2.381395 2.381395-4.762791 4.762791-7.144186l2.381395-2.381395c-2.381395 0-4.762791 0-7.144186 2.381395h-2.381395-9.525581-4.762791-2.381395-2.381396s-2.381395 0-2.381395 2.381395c0 0 0 2.381395-2.381395 2.381396s0 0-2.381396 2.381395c0 0 0 2.381395-2.381395 2.381396l-4.762791 4.76279-7.144186 9.525582c-2.381395 2.381395-4.762791 4.762791-4.762791 7.144186-2.381395 2.381395-2.381395 4.762791-4.76279 7.144186 0 2.381395-2.381395 2.381395-4.762791 4.76279l-2.381395 7.144186-4.762791 4.762791h-2.381395c-2.381395 0-2.381395 2.381395-4.762791 2.381396h-2.381395-2.381396c0-2.381395 2.381395-4.762791 4.762791-7.144187l2.381395-4.76279 2.381396-4.762791c2.381395-2.381395 4.762791-4.762791 4.76279-9.525581 2.381395-2.381395 4.762791-7.144186 7.144186-14.288372l2.381396-4.762791c0-2.381395 2.381395-4.762791 2.381395-7.144186 2.381395-2.381395 2.381395-7.144186 2.381395-9.525582 0-2.381395 2.381395-4.762791 2.381396-7.144186 0-4.762791 2.381395-7.144186 0-7.144186 0-2.381395-2.381395-2.381395-2.381396-4.76279 2.381395 0 2.381395-2.381395 4.762791-2.381396-2.381395 0-2.381395 0 0 0z m90.493023-23.813953h4.762791c4.762791 2.381395 9.525581 4.762791 14.288372 9.525581l4.762791 4.762791 2.381395 2.381395V731.088372s0 2.381395 2.381396 2.381395c0 0 2.381395 0 2.381395-2.381395l4.762791-2.381395s2.381395 0 2.381395-2.381396h2.381395l2.381396-2.381395h2.381395c2.381395 0 2.381395 0 4.762791-2.381395 2.381395 0 2.381395-2.381395 4.76279-2.381396s7.144186 2.381395 9.525582 2.381396c2.381395 0 4.762791 2.381395 4.76279 4.76279s2.381395 2.381395 2.381396 2.381396 0 2.381395 2.381395 2.381395V738.232558l-2.381395 2.381395c0 2.381395-2.381395 2.381395-7.144186 4.762791H881.116279h-2.381395s-2.381395 0-2.381396 2.381396h4.762791c2.381395 0 2.381395 2.381395 4.762791 2.381395s2.381395 2.381395 2.381395 2.381395l2.381395 2.381396c2.381395 0 2.381395 2.381395 2.381396 4.76279 0 0 0 2.381395 2.381395 2.381396V769.190698l-2.381395 2.381395-4.762791 4.762791s-2.381395 0-2.381395 2.381395v2.381395s-2.381395 0-2.381396 2.381396l-2.381395 2.381395s0 2.381395 2.381395 2.381395 4.762791 2.381395 4.762791 2.381396h9.525582l4.76279-7.144186 4.762791-7.144186s2.381395 2.381395 2.381395 7.144186V790.623256c0 2.381395 0 2.381395 2.381396 4.762791 0 2.381395 2.381395 2.381395 2.381395 4.76279v4.762791s0 2.381395-2.381395 2.381395c-2.381395 4.762791-4.762791 4.762791-4.762791 4.762791l-2.381395 2.381395h-4.762791-2.381395l-7.144187-2.381395c-2.381395 0-4.762791-2.381395-7.144186-2.381395-2.381395-2.381395-7.144186-4.762791-9.525581-7.144186l-4.762791-2.381396-2.381395-2.381395h-2.381395-2.381396c-2.381395 0-2.381395 2.381395-4.76279 2.381395l-2.381396 2.381396h-2.381395c-2.381395 0-2.381395 2.381395 0 2.381395h9.525581c2.381395 0 2.381395 0 4.762791 2.381395 0 0 2.381395 0 2.381395 2.381396l2.381396 2.381395v4.762791c0 2.381395-2.381395 2.381395-2.381396 2.381395-2.381395 2.381395-2.381395 2.381395-4.76279 2.381395 0 0-2.381395 0-2.381396 2.381396v2.381395c2.381395 2.381395 2.381395 4.762791 4.762791 7.144186v2.381395c0 2.381395-2.381395 4.762791-2.381395 9.525582 0 2.381395-2.381395 2.381395-2.381396 4.762791s0 2.381395-2.381395 4.76279c0 2.381395-2.381395 2.381395-2.381395 4.762791s0 4.762791-2.381396 9.525581v9.525582H881.116279c4.762791 0 11.906977-2.381395 16.669768-2.381396 2.381395 0 4.762791 0 7.144186-2.381395 2.381395 0 4.762791-2.381395 7.144186-2.381395 2.381395-2.381395 4.762791-2.381395 7.144186-4.762791 2.381395-2.381395 4.762791-4.762791 7.144186-9.525581 2.381395-2.381395 4.762791-7.144186 7.144186-9.525582h4.76279v19.051163s0 2.381395 2.381396 4.762791v4.76279c0 2.381395 0 4.762791-2.381396 4.762791v9.525581s-2.381395 0-2.381395 2.381396l-2.381395 2.381395s-2.381395 0-2.381396 2.381396l2.381396 7.144186h-2.381396-2.381395-2.381395-47.627907-2.381396-2.381395c-4.762791 0-7.144186-2.381395-9.525581-4.762791-2.381395 0-2.381395-2.381395-4.762791-2.381395l-2.381395-2.381396c0-2.381395-2.381395-2.381395-2.381396-2.381395l-2.381395-2.381396c0-2.381395-2.381395-4.762791-2.381395-7.144186V881.116279c0-2.381395 0-4.762791 2.381395-7.144186l2.381395-9.525581c0-2.381395 2.381395-7.144186 2.381396-9.525582 2.381395-9.525581 2.381395-11.906977 0-7.144186 0 2.381395-2.381395 2.381395-2.381396 4.762791l-2.381395 2.381395c0 2.381395-2.381395 2.381395-2.381395 2.381396v2.381395c0 2.381395-2.381395 2.381395-2.381396 4.762791l-4.762791 4.76279-7.144186 7.144186-4.76279 4.762791-2.381396 2.381395c-2.381395 2.381395-4.762791 2.381395-4.76279 4.762791s-2.381395 2.381395-2.381396 2.381395h-4.76279l-2.381396 2.381396h-2.381395s-2.381395 0-2.381395 2.381395c-2.381395 0-2.381395 2.381395-4.762791 2.381396h-2.381395s0-2.381395 2.381395-2.381396l2.381395-4.762791c0-2.381395 2.381395-2.381395 2.381396-4.76279l2.381395-2.381396V881.116279l2.381395-2.381395 4.762791-4.762791c7.144186-11.906977 11.906977-19.051163 14.288372-21.432558 0-2.381395 2.381395-2.381395 2.381395-4.762791v-2.381395s-2.381395 0-2.381395 2.381395c-2.381395 2.381395-4.762791 2.381395-9.525581 2.381396h-4.762791-2.381395c-2.381395 0-2.381395 0-4.762791-2.381396-2.381395 0-2.381395-2.381395-4.762791-2.381395-2.381395-2.381395-2.381395-2.381395 0-2.381396s2.381395-2.381395 4.762791-2.381395c0 0 2.381395 0 7.144186-2.381395l14.288372-7.144186c7.144186-2.381395 11.906977-4.762791 14.288372-7.144186 2.381395-2.381395 4.762791-2.381395 7.144186-4.762791l2.381396-2.381395h-4.762791-2.381395s-2.381395 0-2.381396 2.381395c-2.381395 0-2.381395 0-4.762791 2.381395s-4.762791 2.381395-9.525581 2.381396c-2.381395 0-2.381395 0-2.381395-2.381396s0-2.381395 2.381395-2.381395l2.381395-2.381395s2.381395-2.381395 4.762791-7.144186c4.762791-4.762791 7.144186-9.525581 11.906977-14.288372 2.381395-2.381395 2.381395-4.762791 4.762791-7.144187V785.860465c-4.762791-4.762791-9.525581-11.906977-11.906977-19.051163 0-2.381395-2.381395-2.381395-2.381396-2.381395h-4.76279c-2.381395 0-7.144186 2.381395-9.525582 2.381395h-7.144186-2.381395c-2.381395 0-2.381395 0-4.762791-2.381395H809.674419h-2.381396s-2.381395 0-2.381395-2.381395c0 0-2.381395 0-2.381395-2.381396l2.381395-2.381395h2.381395l4.762791-2.381395c4.762791-2.381395 9.525581-4.762791 16.669767-7.144186h2.381396s2.381395 0 2.381395-2.381396 0-2.381395-2.381395-4.762791c0-2.381395-2.381395-4.762791-2.381396-7.144186v-4.76279c0-2.381395-2.381395-2.381395-2.381395-4.762791v-4.762791-2.381395-2.381395c0-2.381395 0-4.762791-2.381395-7.144186-2.381395-4.762791-2.381395-9.525581-7.144186-14.288372V690.604651c2.381395 0 2.381395 0 4.76279-2.381395z m57.153489 66.67907l-2.381396 2.381395s-2.381395 2.381395-4.76279 2.381395h-4.762791l-4.762791 2.381396h-2.381395s0 2.381395 2.381395 2.381395v4.762791l2.381396 2.381395 2.381395 2.381395v-2.381395l4.762791-4.762791c4.762791-2.381395 7.144186-7.144186 7.144186-11.906976 0 2.381395 0 0 0 0z m2.381395 0c-2.381395 0-2.381395 0 0 0-2.381395 0-2.381395 0 0 0z" fill="#d4237a" p-id="74993" data-spm-anchor-id="a313x.search_index.0.i61.35b13a81O6RsmG" class=""></path></svg>