<svg t="1711609420989" class="icon" viewBox="0 0 1024 1024" version="1.1" xmlns="http://www.w3.org/2000/svg" p-id="73614" width="256" height="256"><path d="M465.92 683.008a6.144 6.144 0 0 1 6.144 6.144v49.152a6.144 6.144 0 0 1-6.144 6.144h-104.448a6.144 6.144 0 0 1-6.144-6.144v-49.152a6.144 6.144 0 0 1 6.144-6.144h104.448z m0-75.776a6.144 6.144 0 0 1 6.144 6.144v49.152a6.144 6.144 0 0 1-6.144 6.144h-104.448a6.144 6.144 0 0 1-6.144-6.144v-49.152a6.144 6.144 0 0 1 6.144-6.144h104.448z m0-75.776a6.144 6.144 0 0 1 6.144 6.144v49.152a6.144 6.144 0 0 1-6.144 6.144h-104.448a6.144 6.144 0 0 1-6.144-6.144v-49.152a6.144 6.144 0 0 1 6.144-6.144h104.448z m0-75.776a6.144 6.144 0 0 1 6.144 6.144v49.152a6.144 6.144 0 0 1-6.144 6.144h-104.448a6.144 6.144 0 0 1-6.144-6.144v-49.152a6.144 6.144 0 0 1 6.144-6.144h104.448z m-2.179072-75.776c4.579328 0.012288 5.203968 3.825664 5.445632 5.777408 1.85344 15.065088 2.87744 31.68256 2.87744 50.020352 0 3.762176-1.644544 5.64224-4.931584 5.64224H361.472a6.144 6.144 0 0 1-6.144-6.144v-49.14176a6.144 6.144 0 0 1 6.144-6.144h7.675904c60.219392-0.014336 91.7504-0.016384 94.593024-0.01024z m-19.552256-75.776c4.542464 0 5.87776 2.674688 6.516736 4.050944 6.63552 14.25408 12.253184 31.277056 16.201728 51.607552 0.36864 1.8944 0 5.781504-3.856384 5.771264-21.622784-0.06144-55.48032-0.06144-101.57056 0a6.144 6.144 0 0 1-6.152192-6.13376v-49.143808a6.144 6.144 0 0 1 6.144-6.144h3.674112l79.04256-0.008192z m-84.936704-75.4176c11.20256 1.7408 43.773952 10.944512 80.474112 54.921216 2.506752 3.004416 2.164736 6.160384-1.353728 6.150144-4.098048-0.014336-29.730816-0.01024-76.898304 0.008192a6.144 6.144 0 0 1-6.146048-6.141952v-51.193856c0-2.902016 1.308672-4.151296 3.923968-3.743744zM654.336 691.2a6.144 6.144 0 0 1 6.144 6.144v43.008a6.144 6.144 0 0 1-6.144 6.144h-92.16a6.144 6.144 0 0 1-6.144-6.144v-43.008a6.144 6.144 0 0 1 6.144-6.144h92.16z m0-67.584a6.144 6.144 0 0 1 6.144 6.144v43.008a6.144 6.144 0 0 1-6.144 6.144h-92.16a6.144 6.144 0 0 1-6.144-6.144v-43.008a6.144 6.144 0 0 1 6.144-6.144h92.16z m0-67.584a6.144 6.144 0 0 1 6.144 6.144v43.008a6.144 6.144 0 0 1-6.144 6.144h-92.16a6.144 6.144 0 0 1-6.144-6.144v-43.008a6.144 6.144 0 0 1 6.144-6.144h92.16z m0-67.584a6.144 6.144 0 0 1 6.144 6.144v43.008a6.144 6.144 0 0 1-6.144 6.144h-92.16a6.144 6.144 0 0 1-6.144-6.144v-43.008a6.144 6.144 0 0 1 6.144-6.144h92.16z m-1.302528-67.579904c4.096 0.01024 4.657152 3.44064 4.872192 5.199872 1.65888 13.55776 2.574336 28.512256 2.574336 45.01504 0 3.385344-1.470464 5.076992-4.41344 5.076992H562.176a6.144 6.144 0 0 1-6.144-6.144v-42.995712a6.144 6.144 0 0 1 6.144-6.144c57.931776-0.012288 88.2176-0.016384 90.857472-0.008192z m-17.16224-67.588096c4.081664 0 5.279744 2.4064 5.85728 3.64544 5.95968 12.828672 11.008 28.14976 14.555136 46.446592 0.331776 1.705984 0 5.203968-3.465216 5.193728-19.329024-0.055296-49.54112-0.055296-90.63424 0a6.144 6.144 0 0 1-6.152192-6.13376v-43.001856a6.144 6.144 0 0 1 6.144-6.144h3.497984l70.197248-0.006144z m-76.290048-67.516416c10.135552 1.57696 39.602176 9.895936 72.802304 49.657856 2.269184 2.717696 1.957888 5.57056-1.224704 5.56032a53887.5904 53887.5904 0 0 0-68.980736 0.008192 6.144 6.144 0 0 1-6.135808-5.781504l-0.01024-0.362496v-45.697024c0-2.625536 1.183744-3.751936 3.549184-3.385344z" fill="#9374FF" p-id="73615"></path><path d="M680.96 768V561.152l-43.008 206.848zM493.568 768V530.432l-43.008 237.568z" fill="#5E3CCF" p-id="73616"></path><path d="M493.568 766.976a7.168 7.168 0 0 1-7.168-7.168V426.018816c0-90.570752-26.712064-157.499392-77.248512-193.54624-28.397568-20.258816-57.188352-25.690112-70.207488-27.142144V759.808a7.168 7.168 0 1 1-14.336 0V197.632A7.168 7.168 0 0 1 331.776 190.464c1.744896 0 43.204608 0.339968 85.030912 29.85984 38.28736 27.02336 83.929088 84.647936 83.929088 205.694976V759.808a7.168 7.168 0 0 1-7.168 7.168M679.936 766.976a7.168 7.168 0 0 1-7.168-7.168V461.889536c0-80.90624-24.08448-140.55424-69.650432-172.490752-24.7808-17.371136-49.58208-22.263808-61.421568-23.642112V759.808a7.168 7.168 0 1 1-14.336 0V258.048a7.168 7.168 0 0 1 7.168-7.168c1.57696 0 39.047168 0.303104 76.818432 26.7776 34.56 24.223744 75.757568 75.851776 75.757568 184.231936V759.808a7.168 7.168 0 0 1-7.168 7.168" fill="#261F31" p-id="73617"></path><path d="M450.568192 766.978048a7.168 7.168 0 0 1-7.028736-8.617984c0.212992-1.026048 21.264384-103.852032 31.1296-216.336384 12.908544-147.177472 1.191936-243.767296-33.886208-279.32672a7.170048 7.170048 0 0 1 10.207232-10.067968c38.67648 39.20896 51.443712 137.039872 37.94944 290.770944-9.945088 113.293312-31.145984 216.823808-31.358976 217.856a7.172096 7.172096 0 0 1-7.012352 5.722112M641.134592 766.978048a7.170048 7.170048 0 0 1-7.026688-8.626176c0.190464-0.915456 19.093504-92.725248 27.949056-193.148928 11.569152-131.211264 1.122304-217.264128-30.21824-248.858624a7.172096 7.172096 0 0 1 0.04096-10.1376 7.172096 7.172096 0 0 1 10.1376 0.04096c82.18624 82.857984 9.271296 439.861248 6.127616 455.016448a7.172096 7.172096 0 0 1-7.010304 5.71392" fill="#261F31" p-id="73618"></path><path d="M742.4 776.192h-462.848a7.168 7.168 0 1 1 0-14.336h462.848a7.168 7.168 0 1 1 0 14.336M471.04 805.888h-104.448a7.168 7.168 0 1 1 0-14.336h104.448a7.168 7.168 0 1 1 0 14.336M619.52 805.888H602.112a7.168 7.168 0 1 1 0-14.336h17.408a7.168 7.168 0 1 1 0 14.336M623.616 833.536h-231.424a7.168 7.168 0 1 1 0-14.336h231.424a7.168 7.168 0 1 1 0 14.336M466.026496 456.704h-104.660992a7.168 7.168 0 0 1 0-14.336h104.660992a7.168 7.168 0 1 1 0 14.336M462.848 380.928h-102.4a7.168 7.168 0 1 1 0-14.336h102.4a7.168 7.168 0 1 1 0 14.336M442.368 305.152h-81.92a7.168 7.168 0 1 1 0-14.336h81.92a7.168 7.168 0 1 1 0 14.336M466.026496 532.48h-104.660992a7.168 7.168 0 0 1 0-14.336h104.660992a7.168 7.168 0 1 1 0 14.336M466.026496 608.256h-104.660992a7.168 7.168 0 0 1 0-14.336h104.660992a7.168 7.168 0 1 1 0 14.336M466.026496 684.032h-104.660992a7.168 7.168 0 0 1 0-14.336h104.660992a7.168 7.168 0 1 1 0 14.336M653.541376 490.496h-90.5728a7.168 7.168 0 0 1 0-14.336h90.5728a7.168 7.168 0 1 1 0 14.336M650.24 422.912h-88.064a7.168 7.168 0 1 1 0-14.336h88.064a7.168 7.168 0 1 1 0 14.336M631.808 355.328h-69.632a7.168 7.168 0 1 1 0-14.336h69.632a7.168 7.168 0 1 1 0 14.336M653.541376 558.08h-90.5728a7.168 7.168 0 0 1 0-14.336h90.5728a7.168 7.168 0 1 1 0 14.336M653.541376 625.664h-90.5728a7.168 7.168 0 0 1 0-14.336h90.5728a7.168 7.168 0 1 1 0 14.336M653.541376 693.248h-90.5728a7.168 7.168 0 0 1 0-14.336h90.5728a7.168 7.168 0 1 1 0 14.336" fill="#261F31" p-id="73619"></path></svg>